<svg preserveAspectRatio="none" width="100%" height="100%" overflow="visible" style="display: block;" viewBox="0 0 81.7 76" fill="none" xmlns="http://www.w3.org/2000/svg">
<g id="Group 1171278605">
<path id="Vector" d="M15.45 0C7.06782 0.119424 0.184949 7.04602 0.00363688 15.5462C-0.114913 21.1872 2.6745 26.1749 6.94927 29.0832C10.0664 31.2047 12.5351 34.1693 13.8949 37.7239L14.8852 40.3021C15.1641 41.0327 16.1892 41.0327 16.4681 40.3021L17.4166 37.8293C18.7834 34.2747 21.2032 31.2399 24.3413 29.1254C28.5672 26.2803 31.3497 21.419 31.3497 15.8904C31.3497 7.03899 24.2018 -0.119417 15.443 0.0070318L15.45 0ZM15.6802 22.2972C12.1864 22.2972 9.35515 19.424 9.35515 15.8904C9.35515 12.3569 12.1864 9.48367 15.6802 9.48367C19.1739 9.48367 22.0051 12.3569 22.0051 15.8904C22.0051 19.424 19.1739 22.2972 15.6802 22.2972Z" fill="var(--fill-0, #CCA870)"/>
<path id="Vector_2" d="M48.3957 8.54995C44.304 8.54995 40.3097 9.29675 36.5311 10.7621C36.0232 10.9594 35.7657 11.5371 35.9605 12.0514C36.1554 12.5657 36.726 12.8193 37.234 12.6291C39.2381 11.8541 41.2979 11.2976 43.4133 10.9594C42.6339 11.6217 42.1607 12.3543 41.8198 13.0518C41.5762 13.5379 41.5553 14.1086 41.5344 14.6581C41.4857 15.8206 41.3744 16.0248 41.0125 16.1235C39.2311 16.6237 35.1116 18.0961 35.0489 21.0762C35.0072 21.4285 34.9515 22.5979 35.8074 23.4997C36.552 24.2887 37.7211 24.5847 39.2659 24.3944C39.5512 24.3592 39.8017 24.2042 39.9618 23.9647C40.1079 23.7392 41.4857 21.8018 43.4481 23.0911C43.5525 23.1616 43.6708 23.2461 43.81 23.3447C44.7285 23.9999 46.2594 25.0989 48.0895 24.9721C49.6761 24.8594 52.4735 24.8453 53.6634 25.2539C55.4309 25.8598 56.0851 27.4238 56.2451 27.8888C56.4469 28.4806 56.44 28.9174 56.3982 29.1146C55.9737 28.9596 55.5771 28.7624 55.1526 28.544C53.2111 27.5718 51.0052 26.4657 46.7465 29.9178C45.3408 31.0591 43.7543 30.8125 43.6986 30.8055C43.6429 30.7984 43.5873 30.7914 43.5316 30.7914C43.0862 30.7914 42.8636 30.6153 42.7174 29.0372C42.6896 28.7483 42.6618 28.4877 42.62 28.2834C42.279 26.5714 40.4211 25.9866 38.8484 26.3036C36.0371 26.8743 26.8168 29.5796 26.281 40.4643C26.1418 43.3106 26.8377 45.403 28.3408 46.6852C30.3658 48.4042 33.2884 48.1787 35.383 47.6926C38.2847 47.0163 41.8476 49.5455 42.7105 52.906C43.0097 54.0544 43.0584 55.7875 43.1141 57.6122C43.1836 59.9935 43.2602 62.4522 43.8726 64.298C44.7772 67.0104 46.5517 68.9267 48.4931 69.3071C48.7297 69.3564 48.9594 69.3776 49.196 69.3776C50.365 69.3776 51.4923 68.7999 52.4178 67.7008C53.2877 66.6722 54.248 65.7705 55.1804 64.8969C56.5304 63.6287 57.6925 62.5368 58.298 61.318C59.0634 59.768 59.8149 54.9632 59.9054 54.3996C60.0307 53.4767 60.4342 52.8215 61.4015 51.9691C61.8886 51.5393 62.5358 51.2504 63.2247 50.9475C64.4285 50.412 65.7924 49.8062 66.8015 48.2563C67.6713 46.9177 68.1375 44.7408 67.2955 43.3388C66.8293 42.5638 66.0151 42.1763 65.1175 42.275C62.5219 42.4581 60.5734 41.7255 59.3348 40.0981C58.0892 38.4706 57.9987 36.4769 58.1657 35.9626C58.2214 35.7864 58.3258 35.6948 58.465 35.6807C58.5276 35.6807 58.7642 35.6807 58.9242 35.9766C61.2971 40.3446 65.5489 40.4785 66.7945 40.4221H67.0172C68.1584 40.3728 71.1785 40.2601 71.6656 37.8013C71.9439 36.3994 71.3803 35.1806 70.9767 34.2929C70.8584 34.0463 70.6983 33.694 70.6357 33.4756C71.2202 33.4333 72.6607 33.9547 73.1617 34.5887C73.6975 35.2721 73.8715 36.3218 74.0663 37.5266C74.3168 39.0483 74.6022 40.7814 75.6947 42.444C76.6272 43.8672 79.2158 45.5298 79.508 45.713C79.522 45.72 79.5359 45.7271 79.5498 45.7342C77.8449 61.6068 64.5399 73.9992 48.4166 73.9992C32.2933 73.9992 18.2785 61.015 17.1721 44.4448C17.1373 43.8953 16.6571 43.4727 16.1213 43.5149C15.5785 43.5501 15.168 44.0292 15.2028 44.5787C16.3788 62.1986 30.9642 76 48.4096 76C66.7667 76 81.7 60.8741 81.7 42.282C81.7 23.6899 66.7667 8.557 48.4096 8.557L48.3957 8.54995ZM77.316 41.3239C76.4532 40.0135 76.2166 38.5763 75.9939 37.1884C75.7573 35.7653 75.5416 34.4196 74.6857 33.3347C73.781 32.1863 71.3385 31.1295 69.8772 31.5875C69.1465 31.8129 68.6733 32.4047 68.6177 33.1585C68.569 33.8349 68.8612 34.4619 69.1674 35.1312C69.5084 35.8709 69.8633 36.6388 69.7102 37.3997C69.5293 38.3085 67.7061 38.379 66.9267 38.4072H66.6832C65.7298 38.4636 62.4592 38.3578 60.6361 35.0044C60.149 34.1096 59.2234 33.5954 58.2701 33.68C57.3446 33.7645 56.5791 34.3915 56.273 35.3144C55.8972 36.4557 56.099 39.1469 57.7482 41.3098C58.8964 42.8104 61.1301 44.5435 65.2636 44.2546C65.5002 44.2264 65.5419 44.2969 65.5837 44.3674C65.8829 44.8676 65.7507 46.185 65.1314 47.1432C64.4424 48.1999 63.503 48.6155 62.4105 49.1017C61.6242 49.4539 60.803 49.8132 60.0863 50.4473C59.1051 51.3139 58.1657 52.3495 57.9291 54.0967C57.6299 56.0271 56.9828 59.451 56.5096 60.4091C56.0712 61.3039 55.0274 62.2831 53.8166 63.4174C52.891 64.284 51.8472 65.2702 50.9009 66.3834C50.2537 67.1513 49.5648 67.4683 48.855 67.3274C47.6442 67.0879 46.3847 65.6084 45.7236 63.6358C45.2017 62.0717 45.1321 59.761 45.0695 57.5347C45.0138 55.5903 44.9581 53.7515 44.6032 52.3847C43.4689 47.9815 38.8553 44.8112 34.9237 45.7271C33.5667 46.0441 31.0686 46.3893 29.5864 45.1352C28.5774 44.2828 28.1181 42.7329 28.2294 40.549C28.6817 31.3621 36.0649 28.8822 39.2172 28.2481C39.8365 28.1213 40.5881 28.2763 40.6716 28.6708C40.6994 28.8187 40.7133 29.009 40.7342 29.2133C40.8316 30.27 41.0613 32.7218 43.4342 32.7782C43.9074 32.8416 46.0506 33.0107 47.9573 31.4678C51.2348 28.8118 52.5014 29.4458 54.255 30.3265C54.7142 30.559 55.1804 30.7914 55.7093 30.9816C56.7044 31.3409 57.3515 30.9605 57.6508 30.7068C58.284 30.1573 58.5206 29.171 58.291 27.9874C57.9848 26.3811 56.7531 24.1972 54.2758 23.3518C52.3343 22.6825 48.3818 22.9361 47.9365 22.9643C46.7952 23.0418 45.6749 22.2387 44.9303 21.7032C44.7702 21.5905 44.6241 21.4848 44.5058 21.4073C41.8963 19.6953 39.6626 21.1678 38.6048 22.45C37.9438 22.4852 37.4566 22.3725 37.22 22.1259C36.9278 21.83 36.9904 21.3157 36.9904 21.3157C36.9974 21.2594 37.0043 21.2101 37.0043 21.1537C37.0043 19.8856 39.2729 18.6808 41.5205 18.0538C43.3785 17.5325 43.4481 15.7149 43.4898 14.7426C43.5038 14.4749 43.5177 14.0663 43.5664 13.9465C44.311 12.4459 45.8071 10.8819 51.3114 10.7339C51.3671 10.7339 51.4227 10.7198 51.4784 10.7128C67.3025 12.2909 79.7029 25.8457 79.7029 42.282C79.7029 42.6766 79.689 43.0641 79.675 43.4515C78.7634 42.7963 77.6988 41.9439 77.3021 41.338L77.316 41.3239Z" fill="var(--fill-0, #667C89)"/>
</g>
</svg>
