<svg preserveAspectRatio="none" width="100%" height="100%" overflow="visible" style="display: block;" viewBox="0 0 28.2011 9.69549" fill="none" xmlns="http://www.w3.org/2000/svg">
<g id="Group">
<path id="Vector" d="M23.3533 9.69549C26.0307 9.69549 28.2011 7.52508 28.2011 4.84776C28.2011 2.17043 26.0307 1.90735e-05 23.3533 1.90735e-05C20.676 1.90735e-05 18.5056 2.17043 18.5056 4.84776C18.5056 7.52508 20.676 9.69549 23.3533 9.69549Z" fill="var(--fill-0, #CCA870)"/>
<path id="Vector_2" d="M4.84779 9.69549C7.52512 9.69549 9.69553 7.52508 9.69553 4.84776C9.69553 2.17043 7.52512 1.90735e-05 4.84779 1.90735e-05C2.17046 1.90735e-05 5.84588e-05 2.17043 5.84588e-05 4.84776C5.84588e-05 7.52508 2.17046 9.69549 4.84779 9.69549Z" fill="var(--fill-0, #CCA870)"/>
</g>
</svg>
