<svg width="80" height="79" viewBox="0 0 80 79" fill="none" xmlns="http://www.w3.org/2000/svg">
<path d="M34.1724 1.95824C37.3841 -0.652748 41.9874 -0.652748 45.1991 1.95824C47.2255 3.60571 49.8824 4.26087 52.4423 3.74386C56.4996 2.92442 60.5755 5.06353 62.2059 8.86811C63.2346 11.2686 65.2831 13.0832 67.79 13.8151C71.7632 14.9751 74.3778 18.7632 74.0535 22.8895C73.8488 25.4931 74.8193 28.0521 76.699 29.8652C79.6781 32.7388 80.2329 37.3084 78.028 40.8115L77.9008 41.0197C76.6174 43.1908 76.3325 45.8153 77.1286 48.2168C78.4311 52.1458 76.799 56.4495 73.2187 58.5266C70.9598 59.8371 69.4051 62.0894 68.9807 64.6662C68.3081 68.7504 64.8628 71.8033 60.7273 71.9787L60.4835 71.9919C57.9677 72.169 55.646 73.4258 54.1219 75.4451L53.8827 75.7482C51.4317 78.7162 47.3181 79.7304 43.7686 78.2415L43.4161 78.084C41.0543 76.9694 38.3172 76.9694 35.9554 78.084C32.2121 79.8505 27.7431 78.7489 25.2496 75.4451C23.7255 73.4258 21.4038 72.169 18.8879 71.9919L18.6442 71.9787C14.6379 71.8088 11.2795 68.9387 10.462 65.0464L10.3908 64.6662C9.97966 62.1699 8.50761 59.9785 6.36229 58.6525L6.15276 58.5266C2.68442 56.5144 1.04393 52.4128 2.12887 48.5865L2.24286 48.2168C3.03894 45.8153 2.75405 43.1908 1.47063 41.0197L1.34347 40.8115C-0.792566 37.4179 -0.338704 33.0232 2.40034 30.1393L2.67246 29.8652C4.49338 28.1088 5.46107 25.6527 5.33375 23.1339L5.31794 22.8895C4.99368 18.7632 7.60826 14.9751 11.5814 13.8151C14.0884 13.0832 16.1369 11.2686 17.1656 8.86811C18.796 5.06353 22.8718 2.92442 26.9291 3.74386C29.4891 4.26087 32.146 3.60571 34.1724 1.95824ZM43.9221 3.52906C41.4542 1.52273 37.9172 1.52273 35.4493 3.52906C32.9536 5.55806 29.6813 6.36453 26.5285 5.7278C23.4109 5.09816 20.2792 6.74201 19.0263 9.66537C17.7593 12.6218 15.2363 14.8568 12.1487 15.7582C9.09568 16.6495 7.08687 19.5606 7.33614 22.7313C7.58815 25.9378 6.39284 29.0891 4.07789 31.322C1.78869 33.5301 1.36234 37.0411 3.0566 39.7329C4.76998 42.455 5.17635 45.8009 4.16421 48.854C3.16339 51.8729 4.4172 55.1798 7.16813 56.7759C9.95026 58.39 11.8653 61.1637 12.3879 64.3374C12.9047 67.4757 15.5521 69.8211 18.7298 69.9559C21.9434 70.0921 24.9276 71.6589 26.8652 74.2262C28.7812 76.7647 32.2153 77.6109 35.0916 76.2536C38.0004 74.8808 41.3711 74.8808 44.2799 76.2536C47.1561 77.6109 50.5902 76.7647 52.5062 74.2262C54.4439 71.6589 57.4281 70.0921 60.6417 69.9559C63.8194 69.8211 66.4668 67.4757 66.9836 64.3374C67.5062 61.1637 69.4212 58.39 72.2033 56.7759C74.9543 55.1798 76.2081 51.8729 75.2073 48.854C74.1951 45.8009 74.6015 42.455 76.3149 39.7329C78.0091 37.0411 77.5828 33.5301 75.2936 31.322C72.9786 29.0891 71.7833 25.9378 72.0353 22.7313C72.2846 19.5606 70.2758 16.6495 67.2227 15.7582C64.1351 14.8568 61.6121 12.6218 60.3451 9.66537C59.0923 6.74201 55.9605 5.09816 52.8429 5.7278C49.6901 6.36453 46.4179 5.55806 43.9221 3.52906Z" fill="#667C89"/>
<path d="M48.756 40.659L62.8532 35.5233L56.2136 50.3419L54.3582 54.7462H25.1036L23.1629 50.3401L23.1555 50.3419L16.6797 34.9104L30.8791 40.659L39.6846 22.8486L48.756 40.659Z" fill="#CCA770"/>
</svg>
