<svg width="102" height="72" viewBox="0 0 102 72" fill="none" xmlns="http://www.w3.org/2000/svg">
<path d="M18.3311 15.083H39.3431C42.5167 15.083 45.0972 17.6636 45.0972 20.8371V39.7946C45.0972 42.3919 42.9927 44.4964 40.3954 44.4964H18.3395C15.7422 44.4964 13.6377 42.3919 13.6377 39.7946V19.7932C13.6377 17.1959 15.7422 15.0914 18.3395 15.0914L18.3311 15.083Z" fill="#CCA770"/>
<path d="M91.4305 0H9.66246C4.3343 0 0 4.33439 0 9.6542V61.825C0 67.1531 4.3343 71.4875 9.66246 71.4875H91.4305C96.7586 71.4875 101.093 67.1531 101.093 61.825V9.6542C101.093 4.32604 96.7586 0 91.4305 0ZM98.7212 61.825C98.7212 65.842 95.4474 69.1157 91.4305 69.1157H9.66246C5.64546 69.1157 2.37175 65.842 2.37175 61.825V9.6542C2.37175 5.6372 5.64546 2.36349 9.66246 2.36349H91.4305C95.4474 2.36349 98.7212 5.6372 98.7212 9.6542V61.825Z" fill="#667C89"/>
<path d="M85.1587 53.5234H14.807C14.1556 53.5234 13.6211 54.0495 13.6211 54.7093C13.6211 55.369 14.1473 55.8952 14.807 55.8952H85.1587C85.8101 55.8952 86.3446 55.369 86.3446 54.7093C86.3446 54.0495 85.8185 53.5234 85.1587 53.5234Z" fill="#667C89"/>
</svg>
