<svg width="77" height="77" viewBox="0 0 77 77" fill="none" xmlns="http://www.w3.org/2000/svg">
<path d="M39.2229 11.0986C35.647 11.0986 32.7524 13.9931 32.7524 17.5691C32.7524 21.1451 35.647 24.0396 39.2229 24.0396C42.7989 24.0396 45.6934 21.1451 45.6934 17.5691C45.6934 13.9931 42.7989 11.0986 39.2229 11.0986Z" fill="#CCA770"/>
<path d="M44.3773 54.6847V35.0573V28.9175H35.0528H29.1626V35.0573H35.0528V54.6847H29.1626V60.8178H35.0528H44.3773H50.2676V54.6847H44.3773Z" fill="#CCA770"/>
<path d="M38.4265 76.9711C28.5082 76.9711 18.6979 73.1117 11.2491 65.6629C-3.74971 50.6641 -3.74971 26.2597 11.2491 11.2677C18.5158 4.00101 28.1709 0 38.4467 0C48.7226 0 58.3777 4.00101 65.6444 11.2677C78.2008 23.824 80.5487 43.0938 71.4199 58.2681L75.1646 74.0361C75.2388 74.3599 75.1443 74.6973 74.9082 74.9334C74.672 75.1696 74.3347 75.264 74.0108 75.1898L58.2428 71.4451C52.0692 75.1628 45.2209 76.9778 38.4198 76.9778L38.4265 76.9711ZM38.4467 1.9094C28.6837 1.9094 19.5076 5.71477 12.5986 12.6171C-1.65136 26.867 -1.65136 50.0568 12.5986 64.3067C24.6219 76.3301 43.1225 78.5026 57.5816 69.5964C57.7975 69.4615 58.0539 69.4211 58.3035 69.4818L72.9448 72.9566L69.47 58.3153C69.4093 58.0656 69.4565 57.8093 69.5847 57.5934C78.4909 43.1276 76.3116 24.6337 64.295 12.6103C57.3927 5.70802 48.2098 1.90265 38.4467 1.90265V1.9094Z" fill="#667C89"/>
</svg>
