<svg width="66" height="69" viewBox="0 0 66 69" fill="none" xmlns="http://www.w3.org/2000/svg">
<path d="M51.0821 41.8377C53.7594 41.8377 55.9298 39.6673 55.9298 36.9899C55.9298 34.3126 53.7594 32.1422 51.0821 32.1422C48.4048 32.1422 46.2344 34.3126 46.2344 36.9899C46.2344 39.6673 48.4048 41.8377 51.0821 41.8377Z" fill="#CCA870"/>
<path d="M32.5782 41.8377C35.2555 41.8377 37.4259 39.6673 37.4259 36.9899C37.4259 34.3126 35.2555 32.1422 32.5782 32.1422C29.9009 32.1422 27.7305 34.3126 27.7305 36.9899C27.7305 39.6673 29.9009 41.8377 32.5782 41.8377Z" fill="#CCA870"/>
<path d="M51.0821 58.5415C53.7594 58.5415 55.9298 56.3711 55.9298 53.6938C55.9298 51.0165 53.7594 48.8461 51.0821 48.8461C48.4048 48.8461 46.2344 51.0165 46.2344 53.6938C46.2344 56.3711 48.4048 58.5415 51.0821 58.5415Z" fill="#CCA870"/>
<path d="M32.5782 58.5415C35.2555 58.5415 37.4259 56.3711 37.4259 53.6938C37.4259 51.0165 35.2555 48.8461 32.5782 48.8461C29.9009 48.8461 27.7305 51.0165 27.7305 53.6938C27.7305 56.3711 29.9009 58.5415 32.5782 58.5415Z" fill="#CCA870"/>
<path d="M14.0743 58.5415C16.7516 58.5415 18.922 56.3711 18.922 53.6938C18.922 51.0165 16.7516 48.8461 14.0743 48.8461C11.397 48.8461 9.22656 51.0165 9.22656 53.6938C9.22656 56.3711 11.397 58.5415 14.0743 58.5415Z" fill="#CCA870"/>
<path d="M60.8478 7.54089H51.4671V3.95204C51.4671 1.77328 49.6938 0 47.515 0C45.3363 0 43.563 1.77328 43.563 3.95204V7.54089H21.6968V3.95204C21.6968 1.77328 19.9235 0 17.7448 0C15.566 0 13.7927 1.77328 13.7927 3.95204V7.54089H4.41198C1.97904 7.54089 0 9.51995 0 11.9529V64.588C0 67.0209 1.97904 69 4.41198 69H60.8418C63.2747 69 65.2538 67.0209 65.2538 64.588V11.9529C65.2538 9.51995 63.2747 7.54089 60.8418 7.54089H60.8478ZM45.2818 3.95204C45.2818 2.71741 46.2865 1.71878 47.515 1.71878C48.7436 1.71878 49.7483 2.72346 49.7483 3.95204V12.8425C49.7483 14.0772 48.7436 15.0758 47.515 15.0758C46.2865 15.0758 45.2818 14.0711 45.2818 12.8425V3.95204ZM15.5115 3.95204C15.5115 2.71741 16.5162 1.71878 17.7448 1.71878C18.9733 1.71878 19.978 2.72346 19.978 3.95204V12.8425C19.978 14.0772 18.9733 15.0758 17.7448 15.0758C16.5162 15.0758 15.5115 14.0711 15.5115 12.8425V3.95204ZM4.41803 9.25368H13.7988V12.8425C13.7988 15.0213 15.5721 16.7946 17.7508 16.7946C19.9296 16.7946 21.7028 15.0213 21.7028 12.8425V9.25368H43.5691V12.8425C43.5691 15.0213 45.3423 16.7946 47.5211 16.7946C49.6999 16.7946 51.4731 15.0213 51.4731 12.8425V9.25368H60.8539C62.3427 9.25368 63.5531 10.4641 63.5531 11.9529V22.0841H1.7188V11.9529C1.7188 10.4641 2.92922 9.25368 4.41803 9.25368ZM60.8478 67.2872H4.41803C2.92922 67.2872 1.7188 66.0768 1.7188 64.588V23.7968H63.5471V64.588C63.5471 66.0768 62.3366 67.2872 60.8478 67.2872Z" fill="#667C89"/>
</svg>
