<svg width="82" height="76" viewBox="0 0 82 76" fill="none" xmlns="http://www.w3.org/2000/svg">
<path d="M15.45 0C7.06782 0.119424 0.184949 7.04602 0.00363688 15.5462C-0.114913 21.1872 2.6745 26.1749 6.94927 29.0832C10.0664 31.2047 12.5351 34.1693 13.8949 37.7239L14.8852 40.3021C15.1641 41.0327 16.1892 41.0327 16.4681 40.3021L17.4166 37.8293C18.7834 34.2747 21.2032 31.2399 24.3413 29.1254C28.5672 26.2803 31.3497 21.419 31.3497 15.8904C31.3497 7.03899 24.2018 -0.119417 15.443 0.0070318L15.45 0ZM15.6802 22.2972C12.1864 22.2972 9.35515 19.424 9.35515 15.8904C9.35515 12.3569 12.1864 9.48367 15.6802 9.48367C19.1739 9.48367 22.0051 12.3569 22.0051 15.8904C22.0051 19.424 19.1739 22.2972 15.6802 22.2972Z" fill="#CCA870"/>
<path d="M48.3942 8.54993C44.3025 8.54993 40.3082 9.29672 36.5297 10.7621C36.0217 10.9594 35.7642 11.537 35.959 12.0513C36.1539 12.5656 36.7245 12.8193 37.2325 12.6291C39.2366 11.8541 41.2964 11.2976 43.4118 10.9594C42.6324 11.6216 42.1592 12.3543 41.8183 13.0518C41.5747 13.5379 41.5538 14.1086 41.533 14.6581C41.4843 15.8205 41.3729 16.0248 41.0111 16.1234C39.2296 16.6236 35.1101 18.0961 35.0475 21.0762C35.0057 21.4284 34.95 22.5979 35.806 23.4997C36.5505 24.2887 37.7196 24.5846 39.2644 24.3944C39.5497 24.3592 39.8002 24.2042 39.9603 23.9647C40.1064 23.7392 41.4843 21.8018 43.4466 23.0911C43.551 23.1615 43.6693 23.2461 43.8085 23.3447C44.727 23.9999 46.2579 25.0989 48.088 24.9721C49.6746 24.8594 52.472 24.8453 53.662 25.2539C55.4295 25.8598 56.0836 27.4238 56.2436 27.8888C56.4454 28.4806 56.4385 28.9173 56.3967 29.1146C55.9722 28.9596 55.5756 28.7624 55.1511 28.544C53.2097 27.5718 51.0037 26.4657 46.745 29.9178C45.3394 31.0591 43.7528 30.8125 43.6971 30.8055C43.6414 30.7984 43.5858 30.7914 43.5301 30.7914C43.0847 30.7914 42.8621 30.6152 42.716 29.0371C42.6881 28.7483 42.6603 28.4876 42.6185 28.2833C42.2775 26.5714 40.4196 25.9866 38.8469 26.3036C36.0356 26.8743 26.8153 29.5796 26.2795 40.4643C26.1403 43.3105 26.8362 45.403 28.3393 46.6852C30.3643 48.4042 33.2869 48.1787 35.3815 47.6926C38.2833 47.0163 41.8461 49.5455 42.709 52.906C43.0082 54.0544 43.0569 55.7875 43.1126 57.6122C43.1822 59.9935 43.2587 62.4522 43.8711 64.298C44.7757 67.0104 46.5502 68.9267 48.4917 69.3071C48.7283 69.3564 48.9579 69.3775 49.1945 69.3775C50.3636 69.3775 51.4909 68.7998 52.4164 67.7008C53.2862 66.6722 54.2465 65.7704 55.1789 64.8968C56.5289 63.6287 57.6911 62.5368 58.2965 61.3179C59.0619 59.768 59.8135 54.9632 59.9039 54.3996C60.0292 53.4767 60.4328 52.8215 61.4 51.969C61.8871 51.5393 62.5343 51.2504 63.2232 50.9475C64.4271 50.412 65.791 49.8062 66.8 48.2563C67.6698 46.9177 68.1361 44.7407 67.2941 43.3388C66.8278 42.5638 66.0137 42.1763 65.116 42.2749C62.5204 42.4581 60.572 41.7255 59.3333 40.098C58.0877 38.4706 57.9972 36.4768 58.1643 35.9625C58.2199 35.7864 58.3243 35.6948 58.4635 35.6807C58.5261 35.6807 58.7627 35.6807 58.9227 35.9766C61.2956 40.3445 65.5474 40.4784 66.793 40.4221H67.0157C68.1569 40.3728 71.177 40.2601 71.6641 37.8013C71.9424 36.3993 71.3788 35.1805 70.9752 34.2928C70.8569 34.0463 70.6968 33.694 70.6342 33.4756C71.2188 33.4333 72.6592 33.9546 73.1602 34.5887C73.696 35.2721 73.87 36.3218 74.0649 37.5265C74.3154 39.0483 74.6007 40.7814 75.6932 42.444C76.6257 43.8671 79.2143 45.5298 79.5066 45.713C79.5205 45.72 79.5344 45.7271 79.5483 45.7341C77.8434 61.6068 64.5384 73.9992 48.4151 73.9992C32.2918 73.9992 18.277 61.015 17.1706 44.4448C17.1358 43.8953 16.6556 43.4726 16.1198 43.5149C15.5771 43.5501 15.1665 44.0292 15.2013 44.5787C16.3773 62.1986 30.9627 76 48.4082 76C66.7652 76 81.6985 60.8741 81.6985 42.282C81.6985 23.6899 66.7652 8.55698 48.4082 8.55698L48.3942 8.54993ZM77.3145 41.3239C76.4517 40.0135 76.2151 38.5763 75.9924 37.1884C75.7558 35.7653 75.5401 34.4196 74.6842 33.3346C73.7796 32.1863 71.337 31.1295 69.8757 31.5875C69.145 31.8129 68.6719 32.4047 68.6162 33.1585C68.5675 33.8348 68.8598 34.4619 69.1659 35.1312C69.5069 35.8709 69.8618 36.6388 69.7087 37.3997C69.5278 38.3085 67.7046 38.379 66.9252 38.4072H66.6817C65.7283 38.4635 62.4578 38.3578 60.6346 35.0043C60.1475 34.1096 59.222 33.5954 58.2686 33.6799C57.3431 33.7645 56.5777 34.3914 56.2715 35.3144C55.8957 36.4557 56.0975 39.1469 57.7467 41.3098C58.8949 42.8104 61.1286 44.5434 65.2621 44.2546C65.4987 44.2264 65.5405 44.2969 65.5822 44.3673C65.8814 44.8675 65.7492 46.185 65.1299 47.1432C64.441 48.1999 63.5016 48.6155 62.409 49.1016C61.6227 49.4539 60.8016 49.8132 60.0848 50.4473C59.1036 51.3138 58.1642 52.3495 57.9276 54.0967C57.6284 56.0271 56.9813 59.451 56.5081 60.4091C56.0697 61.3038 55.0259 62.2831 53.8151 63.4174C52.8896 64.2839 51.8458 65.2702 50.8994 66.3834C50.2522 67.1513 49.5633 67.4683 48.8535 67.3274C47.6427 67.0878 46.3832 65.6084 45.7221 63.6357C45.2002 62.0717 45.1306 59.761 45.068 57.5347C45.0123 55.5903 44.9566 53.7514 44.6017 52.3847C43.4675 47.9815 38.8539 44.8112 34.9222 45.7271C33.5653 46.0441 31.0671 46.3893 29.5849 45.1352C28.5759 44.2828 28.1166 42.7329 28.2279 40.5489C28.6803 31.3621 36.0634 28.8821 39.2157 28.2481C39.8351 28.1213 40.5866 28.2762 40.6701 28.6708C40.6979 28.8187 40.7118 29.0089 40.7327 29.2133C40.8301 30.27 41.0598 32.7218 43.4327 32.7781C43.9059 32.8415 46.0491 33.0106 47.9558 31.4677C51.2334 28.8117 52.4999 29.4458 54.2535 30.3264C54.7127 30.5589 55.179 30.7914 55.7078 30.9816C56.7029 31.3409 57.3501 30.9604 57.6493 30.7068C58.2825 30.1573 58.5191 29.171 58.2895 27.9874C57.9833 26.3811 56.7516 24.1972 54.2743 23.3517C52.3329 22.6825 48.3803 22.936 47.935 22.9642C46.7937 23.0417 45.6734 22.2386 44.9288 21.7032C44.7688 21.5905 44.6226 21.4848 44.5043 21.4073C41.8948 19.6953 39.6611 21.1677 38.6034 22.4499C37.9423 22.4852 37.4552 22.3725 37.2186 22.1259C36.9263 21.83 36.9889 21.3157 36.9889 21.3157C36.9959 21.2593 37.0028 21.21 37.0028 21.1537C37.0028 19.8855 39.2714 18.6808 41.5191 18.0538C43.377 17.5325 43.4466 15.7148 43.4884 14.7426C43.5023 14.4749 43.5162 14.0663 43.5649 13.9465C44.3095 12.4459 45.8056 10.8818 51.3099 10.7339C51.3656 10.7339 51.4212 10.7198 51.4769 10.7127C67.301 12.2909 79.7014 25.8457 79.7014 42.282C79.7014 42.6765 79.6875 43.064 79.6736 43.4515C78.762 42.7963 77.6973 41.9439 77.3007 41.338L77.3145 41.3239Z" fill="#667C89"/>
</svg>
