<svg width="81" height="69" viewBox="0 0 81 69" fill="none" xmlns="http://www.w3.org/2000/svg">
<path d="M47.8848 36.5622C48.1816 36.4002 48.3638 36.0899 48.3705 35.7525C48.5325 30.0782 45.5705 24.7952 40.6451 21.9614C39.7208 21.4284 38.7492 20.9966 37.7438 20.6727L50.2192 17.3396C50.5431 17.2519 50.7995 17.0023 50.894 16.6784C50.9884 16.3546 50.894 16.0037 50.6646 15.7608C46.7513 11.6383 40.915 9.99204 35.4229 11.4562C34.3906 11.7328 33.392 12.1106 32.4474 12.5896L38.9043 1.44347C39.073 1.15334 39.073 0.795729 38.9111 0.498856C38.7491 0.201983 38.4388 0.0198238 38.1015 0.00632958C32.4069 -0.155601 27.1104 2.79958 24.2699 7.71148C23.467 9.10139 22.8934 10.579 22.5561 12.1241C21.49 10.9569 20.2553 9.96504 18.8587 9.16213C13.9333 6.32834 7.86763 6.41602 3.01646 9.38475C2.72633 9.56018 2.55762 9.87736 2.55762 10.2147C2.55762 10.5521 2.74659 10.8624 3.03672 11.0311L14.2167 17.4611C13.1574 17.5218 12.1048 17.6838 11.0725 17.9604C5.58032 19.4245 1.34988 23.7696 0.0274487 29.2887C-0.0535167 29.6194 0.0476999 29.9635 0.290596 30.1997C0.533492 30.4358 0.884332 30.5235 1.20819 30.4358L13.6836 27.1027C12.9752 27.8921 12.3477 28.749 11.8147 29.6666C8.96744 34.5785 9.05512 40.6307 12.0373 45.4616C12.2128 45.745 12.5164 45.9136 12.8537 45.9136C12.8537 45.9136 12.8605 45.9136 12.8672 45.9136C13.2046 45.9136 13.5149 45.7315 13.6836 45.4346L25.6531 24.775C30.0927 30.3481 34.8764 40.9073 34.8291 53.9967C34.8291 54.523 35.2541 54.9548 35.7804 54.9548C36.3067 54.9548 36.7385 54.5297 36.7385 54.0034C36.779 42.2837 33.0613 32.4869 29.0536 26.2593L46.9334 36.5486C47.2235 36.7173 47.5811 36.7173 47.878 36.5486L47.8848 36.5622ZM25.9904 22.292C25.9904 22.292 25.9634 22.2786 25.9499 22.2718C25.9297 22.2583 25.9094 22.2515 25.8824 22.2448C25.788 22.2043 25.6935 22.1773 25.5923 22.1706C25.572 22.1706 25.5451 22.1706 25.5248 22.1706C25.4236 22.1706 25.3291 22.184 25.2347 22.211C25.2144 22.211 25.1942 22.2245 25.1672 22.238C25.066 22.2785 24.9783 22.3257 24.8973 22.4C24.8906 22.4 24.8839 22.4067 24.8771 22.4135C24.8704 22.4202 24.8636 22.4337 24.8569 22.4405C24.7894 22.5012 24.7287 22.5686 24.6814 22.6564L12.8875 43.0124C11.0725 39.0654 11.2614 34.457 13.4745 30.6382C14.5945 28.7017 16.2003 27.0555 18.1165 25.8883C18.5213 25.6386 18.6832 25.1326 18.4943 24.694C18.3391 24.3364 17.9883 24.1138 17.6172 24.1138C17.5363 24.1138 17.4553 24.1272 17.3676 24.1474L2.37551 28.1553C3.89362 24.0868 7.29408 20.9629 11.5718 19.8226C13.7376 19.2424 16.0384 19.2154 18.2245 19.7349C18.6833 19.8428 19.1623 19.5999 19.3377 19.1613C19.5131 18.7228 19.3377 18.2167 18.9261 17.9806L5.49268 10.2484C9.45323 8.44018 14.0749 8.62909 17.9073 10.8354C19.7223 11.8812 21.2337 13.2913 22.3942 15.0321C22.6236 15.3694 23.0419 15.5314 23.44 15.4235C23.8381 15.3155 24.1214 14.9714 24.1484 14.5598C24.2833 12.475 24.8838 10.4981 25.9296 8.68986C28.1427 4.871 32.0493 2.40827 36.3877 1.9967L28.6285 15.3897C28.3923 15.8013 28.4868 16.3276 28.8646 16.6177C29.2357 16.9146 29.7688 16.8876 30.1129 16.5637C31.739 15.0254 33.7496 13.9054 35.9154 13.3251C40.1863 12.1849 44.7001 13.1901 48.0602 15.9564L33.0749 19.9575C32.6161 20.079 32.3192 20.5243 32.3732 20.9966C32.4271 21.4689 32.8252 21.8265 33.2975 21.84C35.5443 21.9007 37.7574 22.5214 39.7005 23.6414C43.5329 25.8477 46.0023 29.7408 46.4139 34.059L25.9971 22.3123L25.9904 22.292Z" fill="#667C89"/>
<path d="M80.0815 31.9069C78.894 26.9275 75.0684 23.0075 70.1092 21.685C69.2861 21.4624 68.4427 21.3207 67.5993 21.2532L77.3422 15.6463C77.6323 15.4776 77.8145 15.1673 77.8212 14.83C77.828 14.4926 77.6525 14.1755 77.3624 14.0001C72.9835 11.3215 67.5049 11.2405 63.0653 13.7976C61.8575 14.4926 60.7847 15.3427 59.8536 16.3345C59.5433 15.0121 59.044 13.7369 58.3491 12.5359C55.7851 8.10981 50.9677 5.44466 45.8601 5.5796C45.3339 5.59309 44.9155 6.03171 44.929 6.56473C44.9425 7.09776 45.3743 7.48909 45.9141 7.49584C50.3672 7.37439 54.4829 9.67517 56.696 13.494C57.6271 15.1066 58.1601 16.8608 58.2816 18.7163C58.3086 19.1279 58.5919 19.4719 58.99 19.5799C59.3881 19.6878 59.8064 19.5259 60.0358 19.1886C61.0681 17.6435 62.4108 16.3885 64.0301 15.4574C67.3766 13.5345 71.4047 13.3388 74.8862 14.8569L63.0113 21.685C62.5998 21.9212 62.4243 22.4272 62.5997 22.8658C62.7751 23.3043 63.2542 23.554 63.713 23.446C65.6561 22.9872 67.7005 23.0142 69.6302 23.527C73.3681 24.5256 76.3503 27.2244 77.7335 30.7531L64.4822 27.2109C64.0234 27.0894 63.5443 27.3189 63.3554 27.7574C63.1664 28.196 63.3284 28.702 63.7332 28.9516C65.4335 29.9907 66.8639 31.4548 67.8625 33.1753C69.7921 36.5084 69.9878 40.523 68.463 43.9977L57.9914 25.9222C57.951 25.8547 57.9037 25.794 57.8498 25.74C57.8498 25.74 57.8498 25.7266 57.843 25.7266C57.843 25.7266 57.8295 25.7198 57.8228 25.713C57.7418 25.6388 57.6473 25.5713 57.5529 25.5309C57.5326 25.5241 57.5192 25.5174 57.4989 25.5106C57.4044 25.4769 57.3032 25.4566 57.202 25.4499C57.1818 25.4499 57.1615 25.4499 57.1413 25.4499C57.0401 25.4499 56.9389 25.4701 56.8445 25.5038C56.8242 25.5106 56.8039 25.5241 56.7837 25.5309C56.7567 25.5444 56.7229 25.5511 56.696 25.5713C56.6285 25.6118 56.5746 25.6591 56.5206 25.7063C56.5206 25.7063 56.5071 25.7063 56.5003 25.7198C51.8044 30.3821 46.8384 42.5134 47.0004 53.97C47.0071 54.4962 47.4322 54.9146 47.9585 54.9146C47.9585 54.9146 47.9652 54.9146 47.972 54.9146C48.4983 54.9078 48.9233 54.476 48.9166 53.943C48.7749 44.0045 52.8434 32.9865 56.9996 28.0003L67.687 46.4469C67.8557 46.737 68.1661 46.9192 68.5034 46.9259C68.5034 46.9259 68.5102 46.9259 68.5169 46.9259C68.8475 46.9259 69.1579 46.7573 69.3334 46.4739C72.0255 42.1086 72.0996 36.6434 69.5357 32.2105C69.1107 31.4751 68.6114 30.7801 68.0649 30.1391L78.9345 33.0472C79.2584 33.1349 79.6092 33.0472 79.8454 32.811C80.0882 32.5749 80.1895 32.2307 80.1085 31.9069H80.0815Z" fill="#667C89"/>
<path d="M73.9685 68.2121C75.6688 68.2121 76.4514 66.1272 75.1964 64.9802C65.9191 56.5328 54.4423 51.5332 42.0142 51.5332C29.586 51.5332 18.1091 56.5328 8.8318 64.9802C7.57684 66.1272 8.35947 68.2121 10.0597 68.2121H73.9685Z" fill="#CCA770"/>
</svg>
