<svg width="107" height="70" viewBox="0 0 107 70" fill="none" xmlns="http://www.w3.org/2000/svg">
<path d="M106.743 12.509C107.215 10.8425 106.223 9.12198 104.543 8.69691C103.012 8.31232 101.392 8.54177 100.029 9.33118L91.7506 14.1081L75.598 5.49203C74.5522 4.93202 73.2837 4.95231 72.2581 5.54606L68.8441 7.51617L83.3909 18.9391L74.5994 24.6067L68.6282 22.0023C67.3125 21.4288 65.8079 21.5165 64.5664 22.2317L62.603 23.3652L71.489 30.3282L73.0813 41.5081L75.0447 40.3747C76.2862 39.6595 77.1093 38.3977 77.2713 36.9741L77.9999 30.4969L87.3515 25.6929L89.9221 44.0249L92.405 42.5877C94.0109 41.6566 95.0297 39.9699 95.0904 38.1144L95.6706 20.889L103.949 16.1121C105.312 15.3227 106.324 14.0339 106.756 12.5158L106.743 12.509Z" fill="#CCA770"/>
<path d="M68.0478 32.5076C68.5471 32.3254 68.8035 31.7789 68.6213 31.2796C68.4391 30.7803 67.8926 30.5239 67.3933 30.7061C62.333 32.5413 56.996 34.2146 51.5308 35.672C21.0271 43.8428 3.55885 42.5068 2.07449 36.9674C0.907236 32.6088 5.62347 27.2246 14.6848 22.5758C15.1571 22.3329 15.3393 21.7594 15.0964 21.2871C14.8535 20.8148 14.28 20.6327 13.8077 20.8756C-0.496164 28.2097 -0.455681 34.9163 0.225778 37.4599C1.28507 41.4205 6.92566 43.4042 15.987 43.4042C24.9944 43.4042 37.3956 41.4408 52.0301 37.5207C57.5493 36.0431 62.9402 34.3563 68.0545 32.5008L68.0478 32.5076Z" fill="#667C89"/>
<path d="M17.4509 40.5704C17.4981 40.5704 17.5453 40.5704 17.5925 40.5569C18.1121 40.4759 18.4764 39.9902 18.3954 39.4706C18.1526 37.8716 18.0311 36.2253 18.0311 34.579C18.0311 31.2864 18.5169 28.0477 19.475 24.9441C19.8866 23.6149 20.3791 22.3261 20.9324 21.1049C21.8365 19.1145 22.9295 17.2456 24.1777 15.5116C27.6323 19.0471 31.6468 21.8067 36.0392 23.6891C35.5534 27.1032 35.2835 30.7534 35.2835 34.579C35.2835 35.5573 35.297 36.4546 35.3307 37.3318C35.351 37.8445 35.776 38.2561 36.2888 38.2561C36.3023 38.2561 36.3158 38.2561 36.3225 38.2561C36.8488 38.2359 37.2604 37.7906 37.2401 37.2643C37.2064 36.4074 37.1929 35.5303 37.1929 34.579C37.1929 31.0502 37.4426 27.6362 37.8946 24.4245C41.9294 25.9021 46.234 26.6713 50.6871 26.6713C53.2578 26.6713 55.815 26.4082 58.2979 25.8887C58.8174 25.7807 59.148 25.2747 59.0401 24.7551C58.9321 24.2356 58.4261 23.905 57.9066 24.013C55.5518 24.5055 53.1296 24.7551 50.6939 24.7551C46.342 24.7551 42.1318 23.9792 38.205 22.4881C40.2359 10.5592 45.1343 1.9094 50.6939 1.9094C55.3089 1.9094 59.7148 7.94806 62.191 17.6639C62.3192 18.1767 62.8454 18.4871 63.3515 18.3521C63.8643 18.2239 64.1746 17.6977 64.0397 17.1916C62.2854 10.3096 59.6068 5.20875 56.4424 2.42219C59.283 2.92823 62.0358 3.79862 64.6739 5.05358C65.153 5.28298 65.7197 5.08054 65.9491 4.6015C66.1785 4.12245 65.9761 3.55568 65.4971 3.32628C60.855 1.11997 55.8757 0 50.6939 0C37.1524 0 24.7917 7.97507 19.1984 20.3088C18.6114 21.6042 18.0918 22.9672 17.6533 24.3706C16.6412 27.6564 16.1284 31.0907 16.1284 34.5655C16.1284 36.3062 16.2566 38.0469 16.513 39.7404C16.5872 40.2127 16.992 40.5569 17.4576 40.5569L17.4509 40.5704ZM44.9184 2.4357C40.978 5.91046 37.8879 12.8735 36.3495 21.7324C32.2743 19.9175 28.5499 17.3063 25.345 13.98C30.2636 7.94808 37.2132 3.8256 44.9116 2.4357H44.9184Z" fill="#667C89"/>
<path d="M84.0649 38.667C83.5454 38.5928 83.0528 38.9505 82.9786 39.47C82.1892 44.7125 80.1381 49.5164 77.1693 53.6119C73.7216 50.0899 69.707 47.3371 65.3214 45.4547C65.6318 43.3226 65.8544 41.123 65.9759 38.8964C66.0029 38.3701 65.598 37.9181 65.0718 37.8911C64.5455 37.8574 64.0934 38.269 64.0664 38.7953C63.9585 40.8059 63.7628 42.7963 63.4929 44.7327C59.4582 43.2551 55.14 42.4792 50.6869 42.4792C40.5865 42.4792 31.2012 46.4464 24.164 53.6523C22.6392 51.5203 21.3505 49.179 20.3451 46.6556C20.1495 46.1631 19.5962 45.927 19.1037 46.1226C18.6111 46.3183 18.375 46.8715 18.5706 47.3641C23.8401 60.5952 36.4505 69.1438 50.6937 69.1438C67.6627 69.1438 82.3579 56.5064 84.8745 39.7466C84.9555 39.227 84.5912 38.7345 84.0716 38.6603L84.0649 38.667ZM63.1961 46.6623C61.1247 58.9961 56.1386 67.2343 50.6869 67.2343C45.2352 67.2343 40.2491 58.9961 38.1778 46.6623C42.1113 45.1712 46.3283 44.3886 50.6869 44.3886C55.0456 44.3886 59.2625 45.1712 63.1961 46.6623ZM25.3313 55.1975C28.5429 51.8576 32.2808 49.2397 36.3695 47.418C37.9484 56.4861 41.052 63.321 44.9249 66.7283C37.1522 65.3586 30.2297 61.2496 25.3313 55.1975ZM56.4759 66.7081C60.3353 63.2873 63.4322 56.4659 65.011 47.418C69.0795 49.233 72.7972 51.8307 75.9953 55.1503C71.1239 61.1012 64.2216 65.2979 56.4759 66.7148V66.7081Z" fill="#667C89"/>
</svg>
