<svg width="75" height="69" viewBox="0 0 75 69" fill="none" xmlns="http://www.w3.org/2000/svg">
<path d="M44.8689 38.8837H37.2246L32.3537 32.7787C31.0482 31.1421 29.0999 30.2588 27.119 30.2588C26.1513 30.2588 25.1641 30.4666 24.2418 30.9083L28.1516 38.8837H18.7668L17.4355 36.4417C16.5587 34.8375 14.8831 33.8373 13.0581 33.8373H9.60938L14.6752 44.3262C15.7728 46.6058 18.0784 48.0476 20.6049 48.0476H27.697L22.8585 57.9066C25.6707 59.2445 29.0284 58.4716 30.9703 56.0361L37.3481 48.0476H44.8559C47.3823 48.0476 49.4346 45.9954 49.4346 43.4625C49.4346 40.9296 47.3823 38.8772 44.8559 38.8772L44.8689 38.8837Z" fill="#CCA770"/>
<path d="M69.7915 19.7446H5.08528C2.27959 19.7446 0 22.0307 0 24.8364V63.9082C0 66.7139 2.27959 69 5.08528 69H69.7915C72.5972 69 74.8768 66.7204 74.8768 63.9082V24.8364C74.8768 22.0307 72.5972 19.7446 69.7915 19.7446ZM73.0323 63.9082C73.0323 65.7008 71.5775 67.1556 69.785 67.1556H5.07878C3.29275 67.1556 1.83146 65.7008 1.83146 63.9082V24.8364C1.83146 23.0439 3.28626 21.5891 5.07878 21.5891H69.785C71.571 21.5891 73.0323 23.0439 73.0323 24.8364V63.9082Z" fill="#667C89"/>
<path d="M58.1332 54.3474C57.6266 54.3474 57.2109 54.7565 57.2109 55.2696V63.2646C57.2109 63.7711 57.6201 64.1867 58.1332 64.1867C58.6463 64.1867 59.0554 63.7776 59.0554 63.2646V55.2696C59.0554 54.763 58.6463 54.3474 58.1332 54.3474Z" fill="#667C89"/>
<path d="M58.1332 39.4553C57.6266 39.4553 57.2109 39.8645 57.2109 40.3776V48.3725C57.2109 48.879 57.6201 49.2947 58.1332 49.2947C58.6463 49.2947 59.0554 48.8855 59.0554 48.3725V40.3776C59.0554 39.871 58.6463 39.4553 58.1332 39.4553Z" fill="#667C89"/>
<path d="M58.1332 24.5564C57.6266 24.5564 57.2109 24.9655 57.2109 25.4786V33.4735C57.2109 33.9801 57.6201 34.3957 58.1332 34.3957C58.6463 34.3957 59.0554 33.9866 59.0554 33.4735V25.4786C59.0554 24.972 58.6463 24.5564 58.1332 24.5564Z" fill="#667C89"/>
<path d="M8.85669 18.133C8.94112 18.133 9.02549 18.12 9.11642 18.094L64.6652 1.97433C65.4965 1.73403 66.3733 1.8314 67.1332 2.25356C67.8931 2.67571 68.4451 3.36414 68.6854 4.19545L72.3678 16.899C72.5107 17.3861 73.0173 17.6654 73.5109 17.529C73.998 17.3861 74.2772 16.8795 74.1409 16.3859L70.4584 3.68243C70.0817 2.377 69.218 1.29885 68.0294 0.636395C66.8409 -0.0195646 65.464 -0.175385 64.1586 0.201304L8.60989 16.321C8.12279 16.4639 7.84346 16.9705 7.97985 17.4641C8.09676 17.8667 8.46694 18.1265 8.86311 18.1265L8.85669 18.133Z" fill="#667C89"/>
<path d="M54.3012 8.07924C53.8141 8.22212 53.5349 8.72871 53.6713 9.22231L55.8924 16.8989C56.0093 17.3016 56.3795 17.5614 56.7756 17.5614C56.8601 17.5614 56.9445 17.5484 57.0354 17.5224C57.5225 17.3795 57.8018 16.8729 57.6654 16.3793L55.4443 8.7027C55.3014 8.2156 54.7883 7.92986 54.3012 8.07274V8.07924Z" fill="#667C89"/>
</svg>
