<svg width="97" height="83" viewBox="0 0 97 83" fill="none" xmlns="http://www.w3.org/2000/svg">
<path d="M48.0199 67.8717C56.7833 67.8717 63.8874 60.7339 63.8874 51.929C63.8874 43.1241 56.7833 35.9863 48.0199 35.9863C39.2565 35.9863 32.1523 43.1241 32.1523 51.929C32.1523 60.7339 39.2565 67.8717 48.0199 67.8717Z" fill="#CCA770"/>
<path d="M86.1441 0.016617C86.1441 0.016617 86.1191 0.016617 86.1107 0.016617H9.77944C4.38447 0.016617 0 4.40114 0 9.79611V36.7292C0 42.1241 4.38447 46.5086 9.77944 46.5086H19.1079C19.7008 46.5086 20.1769 46.0325 20.1769 45.4396C20.1769 44.8466 19.7008 44.3707 19.1079 44.3707H10.0467C5.76245 44.3707 2.27995 40.8881 2.27995 36.6122V9.89632C2.27995 5.62043 5.76245 2.13789 10.0467 2.13789H86.1441C90.3448 2.15459 93.7605 5.57867 93.7605 9.78775V36.7208C93.7605 40.9299 90.3448 44.354 86.1357 44.3707H82.9956H76.9409C76.348 44.3707 75.8719 44.8466 75.8719 45.4396C75.8719 46.0325 76.348 46.5086 76.9409 46.5086H86.119C86.119 46.5086 86.1357 46.5086 86.1441 46.5086H86.1608C91.6226 46.5086 96.0571 42.074 96.0571 36.6122V9.89632C96.0571 4.44289 91.6142 0 86.1608 0L86.1441 0.016617Z" fill="#667C89"/>
<path d="M83.9473 22.4634C83.9473 21.8705 83.4713 21.3945 82.8783 21.3945H13.3033C12.7104 21.3945 12.2344 21.8705 12.2344 22.4634C12.2344 23.0564 12.7104 23.5324 13.3033 23.5324H82.8783C83.4713 23.5324 83.9473 23.0564 83.9473 22.4634Z" fill="#667C89"/>
<path d="M72.7563 25.5625C72.1633 25.5625 71.6873 26.0386 71.6873 26.6315V80.8232H24.3352V26.6315C24.3352 26.0386 23.8592 25.5625 23.2663 25.5625C22.6733 25.5625 22.1973 26.0386 22.1973 26.6315V81.8922C22.1973 82.4852 22.6733 82.9612 23.2663 82.9612H72.7479C73.3409 82.9612 73.8169 82.4852 73.8169 81.8922V26.6315C73.8169 26.0386 73.3409 25.5625 72.7479 25.5625H72.7563Z" fill="#667C89"/>
</svg>
