<svg width="84" height="69" viewBox="0 0 84 69" fill="none" xmlns="http://www.w3.org/2000/svg">
<path d="M63.8653 10.0149H57.2841H51.3434V5.98849C51.3434 2.69109 48.6182 0 45.2595 0H34.9449C31.593 0 28.8611 2.68427 28.8611 5.98849V10.0149H22.9203H16.3391C12.885 10.0149 10.0781 12.8217 10.0781 16.2758V49.1613C10.0781 52.6153 12.885 55.4222 16.3391 55.4222H44.1763C44.7077 55.4222 45.1436 54.993 45.1436 54.4548C45.1436 53.9166 44.7145 53.4874 44.1763 53.4874H23.8877V11.9497H56.3303V26.1271C56.3303 26.6585 56.7595 27.0946 57.2977 27.0946C57.836 27.0946 58.2651 26.6653 58.2651 26.1271V11.9497H63.8857C66.2702 11.9497 68.2119 13.8913 68.2119 16.2758V30.2421C68.2119 30.7735 68.641 31.2095 69.1792 31.2095C69.7175 31.2095 70.1467 30.7803 70.1467 30.2421V16.2758C70.1467 12.8217 67.3398 10.0149 63.8857 10.0149H63.8653ZM30.7891 5.98849C30.7891 3.75388 32.649 1.9349 34.9381 1.9349H45.2527C47.5418 1.9349 49.4016 3.75388 49.4016 5.98849V10.0149H30.7823V5.98849H30.7891ZM21.9461 53.4806H16.3255C13.941 53.4806 11.9994 51.5389 11.9994 49.1544V16.269C11.9994 13.8845 13.941 11.9429 16.3255 11.9429H21.9461V53.4806Z" fill="#667C89"/>
<path d="M50.922 56.0286C30.8719 68.5505 10.1678 70.8533 3.79779 61.2609C0.173377 55.8038 1.83566 47.3082 8.3487 37.9543C8.65528 37.5182 8.54629 36.9118 8.11027 36.6121C7.67425 36.3055 7.06793 36.4146 6.76817 36.8506C-0.221776 46.8859 -1.89089 56.1716 2.1968 62.3236C5.18081 66.8133 10.9036 69.0002 18.1251 69.0002C27.7312 69.0002 39.9874 65.1237 51.9507 57.6569C52.4003 57.3707 52.5434 56.778 52.2573 56.3284C51.978 55.8719 51.3784 55.7424 50.9288 56.0218L50.922 56.0286Z" fill="#667C89"/>
<path d="M83.8343 29.0356C83.8752 27.346 82.5059 25.963 80.8163 25.9767C79.2766 25.9903 77.7982 26.6034 76.7013 27.6867L70.0588 34.2406L52.6725 30.078C51.5416 29.8055 50.3562 30.1393 49.5318 30.9569L46.7931 33.6615L63.3482 40.8695L56.44 48.3908L50.1518 47.3962C48.7688 47.1782 47.3653 47.6277 46.3707 48.6088L44.7969 50.1621L54.9071 54.5564L59.1583 64.7279L60.732 63.1746C61.7267 62.1935 62.1968 60.797 61.9992 59.414L61.0931 53.1121L68.7439 46.272L75.6862 62.9634L77.6823 60.9945C78.9699 59.7205 79.515 57.8742 79.1198 56.1029L75.4273 39.684L82.0698 33.1301C83.1667 32.0469 83.8002 30.5821 83.8343 29.0424V29.0356Z" fill="#CCA770"/>
</svg>
