<svg width="56" height="69" viewBox="0 0 56 69" fill="none" xmlns="http://www.w3.org/2000/svg">
<path d="M27.7687 55.4208C37.0988 55.4208 44.6624 47.9805 44.6624 38.8023C44.6624 29.6242 37.0988 22.1838 27.7687 22.1838C18.4386 22.1838 10.875 29.6242 10.875 38.8023C10.875 47.9805 18.4386 55.4208 27.7687 55.4208Z" fill="#CCA870"/>
<path d="M53.8576 1.07243C52.5893 0.0973376 50.9801 -0.231694 49.4367 0.16313L0.711881 7.46734C0.711881 7.46734 0.693941 7.46735 0.681977 7.47333C0.66403 7.47333 0.640116 7.48531 0.62217 7.4913C0.586277 7.50326 0.550357 7.50927 0.520446 7.52124C0.5025 7.52722 0.490562 7.53315 0.472615 7.54512C0.436722 7.56306 0.400803 7.58099 0.370892 7.59893C0.358928 7.60492 0.346971 7.6169 0.340988 7.62289C0.305095 7.64682 0.275201 7.67075 0.24529 7.70066C0.239308 7.70664 0.22732 7.71863 0.221338 7.7306C0.191427 7.76051 0.167532 7.79037 0.143603 7.82626C0.137621 7.83822 0.131621 7.85022 0.125639 7.86219C0.10171 7.89808 0.0837782 7.93401 0.0658317 7.9699C0.0658317 7.98186 0.0538557 7.99379 0.0538557 8.00576C0.0418913 8.04165 0.0239462 8.08349 0.0179641 8.12537C0.0179641 8.13733 0.0179582 8.15532 0.011976 8.16729C0.00599386 8.20916 0 8.25101 0 8.29289V8.30486V68.1506C0 68.6172 0.376903 69 0.849495 69H50.6332C53.4807 69 55.7958 66.6789 55.7958 63.8314V14.7417L55.8855 5.1762C55.8855 3.55503 55.1497 2.06548 53.8695 1.07842L53.8576 1.07243ZM49.7298 1.82619C49.7597 1.82619 49.7897 1.81421 49.8196 1.80823C50.8665 1.53305 51.9612 1.75439 52.8227 2.41243C53.6841 3.07646 54.1806 4.08144 54.1806 5.15823L54.1447 8.84926C53.2234 7.98185 51.9851 7.44938 50.6212 7.44938H12.2096L49.7358 1.82619H49.7298ZM54.0849 63.8255C54.0849 65.7398 52.5295 67.3011 50.6212 67.3011H1.68099V9.14837H50.6212C52.5355 9.14837 54.0849 10.7037 54.0849 12.624V63.8314V63.8255Z" fill="#667C89"/>
</svg>
