<svg preserveAspectRatio="none" width="100%" height="100%" overflow="visible" style="display: block;" viewBox="0 0 40 40" fill="none" xmlns="http://www.w3.org/2000/svg">
<g id="Group 1171278569">
<path id="Union" d="M3.13672 28.7617L3.0293 28.5498C1.73229 25.9806 1.00005 23.0771 1 20C1 9.50659 9.50659 1 20 1C30.4934 1 39 9.50659 39 20L38.9941 20.4902C38.734 30.757 30.3294 39 20 39C17.3175 39 15.2188 38.5167 13.8027 38.041C13.0945 37.8031 12.557 37.5669 12.2031 37.3945C12.0262 37.3083 11.8948 37.2379 11.8115 37.1914C11.7701 37.1683 11.7402 37.151 11.7227 37.1406C11.714 37.1355 11.7087 37.1315 11.7061 37.1299L11.4629 36.9775H3.13672V28.7617Z" stroke="var(--stroke-0, #CCA870)" stroke-width="2"/>
<g id="Group 1171278568">
<circle id="Ellipse 185" cx="20" cy="20.6299" r="2" fill="var(--fill-0, #CCA870)" stroke="var(--stroke-0, #CCA870)"/>
<circle id="Ellipse 186" cx="30" cy="20.6299" r="2" fill="var(--fill-0, #CCA870)" stroke="var(--stroke-0, #CCA870)"/>
<circle id="Ellipse 187" cx="10" cy="20.6299" r="2" fill="var(--fill-0, #CCA870)" stroke="var(--stroke-0, #CCA870)"/>
</g>
</g>
</svg>
