<svg width="125" height="125" viewBox="0 0 125 125" fill="none" xmlns="http://www.w3.org/2000/svg">
<circle cx="62.6736" cy="62.6453" r="49.408" fill="#CCA870"/>
<path d="M27.3518 91.8755L33.734 85.6425L34.2326 86.1531L33.6435 86.7284C34.3623 86.6787 35.2799 87.0486 35.9032 87.6869C37.1498 88.9633 36.994 90.6502 35.6881 91.9255C34.3429 93.2393 32.4492 93.343 31.1067 91.9684C30.5793 91.4284 30.1887 90.8123 30.099 90.1901L27.8505 92.386L27.3518 91.8755ZM35.2879 88.0193C34.6837 87.4007 33.794 87.1378 33.1526 87.2079L30.6095 89.6915C30.7558 90.4502 31.0892 90.988 31.5495 91.4593C32.5947 92.5295 34.0512 92.4691 35.1312 91.4143C36.1819 90.3882 36.3235 89.0797 35.2879 88.0193ZM40.4996 97.8351L40.3874 98.421C39.5912 98.5973 38.6899 98.3393 38.0062 97.8803C36.3882 96.7941 35.9867 95.0037 37.073 93.3857C38.0751 91.8929 39.7746 91.3313 41.461 92.4635C42.7828 93.3508 43.1736 94.9356 42.2326 96.3372C42.1026 96.5309 41.9917 96.6714 41.8772 96.7928L37.6497 93.9547C36.8691 95.2159 37.1846 96.5188 38.4153 97.3449C39.1103 97.8116 39.9016 97.9626 40.4996 97.8351ZM41.0292 92.9836C39.8897 92.2186 38.7202 92.5079 37.9445 93.4418L41.6364 95.9203C42.3403 94.8225 42.1003 93.7026 41.0292 92.9836ZM49.9828 97.1056L46.0175 98.6112L47.7677 102.876L46.8853 102.496L45.2071 98.3072L49.1382 96.7421L49.9828 97.1056ZM42.9144 100.787L45.3564 95.1141L46.0119 95.3962L43.5699 101.069L42.9144 100.787ZM50.2667 100.517C50.6534 98.7054 52.2255 97.6516 54.1046 98.0525C55.9837 98.4535 56.9887 100.057 56.602 101.869C56.2154 103.681 54.6433 104.735 52.7642 104.334C50.8851 103.933 49.8801 102.329 50.2667 100.517ZM51.0049 100.675C50.6956 102.125 51.4952 103.376 52.9045 103.676C54.3273 103.98 55.5516 103.175 55.8638 101.712C56.1731 100.262 55.387 99.0138 53.9642 98.7102C52.5683 98.4124 51.3171 99.2119 51.0049 100.675ZM59.0156 105.3L58.9533 99.1238L59.6258 99.1171L62.2268 102.536L64.6624 99.0663L65.3074 99.0597L65.3697 105.235L64.656 105.243L64.6047 100.151L62.2367 103.51L62.1955 103.511L59.6779 100.201L59.7292 105.292L59.0156 105.3ZM73.3523 102.619L73.7012 103.103C73.283 103.803 72.4767 104.281 71.6736 104.463C69.773 104.894 68.1955 103.957 67.7645 102.057C67.3669 100.303 68.125 98.6817 70.106 98.2325C71.6586 97.8805 73.0792 98.6841 73.4526 100.33C73.5042 100.558 73.5302 100.735 73.5399 100.902L68.5742 102.028C68.9555 103.461 70.1195 104.126 71.5651 103.798C72.3815 103.613 73.0345 103.141 73.3523 102.619ZM70.1878 98.9036C68.8493 99.2071 68.2569 100.256 68.4035 101.461L72.7401 100.478C72.425 99.2124 71.4459 98.6182 70.1878 98.9036ZM76.6641 104.751L75.7544 102.707L76.4566 102.395C76.6068 101.787 76.5224 100.383 75.8428 98.5519L75.2218 96.9204L78.8204 95.3187L81.0582 100.347L81.9986 99.9281L82.9083 101.972L82.2939 102.245L81.6577 100.816L76.6423 103.048L77.2785 104.478L76.6641 104.751ZM76.5813 98.5236C77.1814 100.209 77.2728 101.596 77.1462 102.088L80.4062 100.637L78.4418 96.2233L76.1096 97.2613L76.5813 98.5236ZM85.4817 91.1662L86.9462 97.6653C87.4602 99.9974 87.2913 100.766 86.6032 101.242C86.276 101.469 85.9349 101.555 85.5547 101.585L85.4338 101.001C85.6882 100.958 85.9459 100.896 86.149 100.756C86.6679 100.396 86.7509 99.7208 86.4683 98.3972L86.3935 98.0483L80.3715 94.7073L81.0709 94.2227L85.2939 96.6061L86.2021 97.1457C86.1013 96.8315 86.0152 96.4904 85.9213 96.138L84.8161 91.6274L85.4817 91.1662ZM93.3427 90.3223L93.8976 90.5412C93.9234 91.3562 93.5029 92.1941 92.9252 92.7809C91.558 94.1697 89.7242 94.2325 88.3354 92.8653C87.0542 91.604 86.8171 89.8298 88.2422 88.3823C89.3591 87.2478 90.9888 87.1575 92.1917 88.3418C92.358 88.5054 92.4755 88.6404 92.5736 88.7755L89.0015 92.404C90.0962 93.4047 91.435 93.336 92.4749 92.2798C93.0622 91.6832 93.3572 90.9336 93.3427 90.3223ZM88.6732 88.903C87.7104 89.8811 87.778 91.0839 88.552 92.0193L91.6717 88.8505C90.7233 87.9553 89.5783 87.9837 88.6732 88.903ZM91.5853 86.2477L90.9999 85.8395L94.2182 81.2237L94.8036 81.6319L93.3985 83.6471L97.8792 86.7712L97.4711 87.3566L92.9903 84.2325L91.5853 86.2477Z" fill="white"/>
<path d="M32.5062 48.2367L24.839 43.6765L25.2038 43.0631L25.9116 43.4841C25.6783 42.8024 25.7992 41.8204 26.2552 41.0537C27.1673 39.5202 28.8373 39.2361 30.4062 40.1692C32.0222 41.1303 32.6105 42.9334 31.6283 44.5848C31.2425 45.2335 30.7479 45.7697 30.1698 46.0168L32.8711 47.6234L32.5062 48.2367ZM26.735 41.5626C26.293 42.3057 26.2684 43.2332 26.5013 43.8349L29.5564 45.6519C30.2518 45.315 30.6855 44.8544 31.0223 44.2882C31.787 43.0024 31.3532 41.6107 30.0557 40.839C28.7936 40.0883 27.4927 40.2887 26.735 41.5626ZM37.4329 34.9087L37.9875 35.1282C38.0123 35.9432 37.5909 36.7806 37.0125 37.3668C35.6436 38.7539 33.8098 38.8146 32.4226 37.4457C31.1429 36.1829 30.9079 34.4085 32.3346 32.9627C33.4529 31.8295 35.0827 31.7411 36.2843 32.9268C36.4504 33.0907 36.5677 33.2258 36.6657 33.361L33.0892 36.9852C34.1828 37.9872 35.5216 37.9201 36.5627 36.8651C37.1508 36.2692 37.4467 35.52 37.4329 34.9087ZM32.7651 33.4839C31.8011 34.4608 31.8673 35.6637 32.6402 36.6L35.7636 33.4349C34.8163 32.5386 33.6713 32.5656 32.7651 33.4839ZM42.0639 25.5007L41.057 29.6209L45.5627 30.596L44.7496 31.1078L40.3472 30.1163L41.2857 25.9905L42.0639 25.5007ZM41.0907 33.4105L37.8011 28.1836L38.4051 27.8035L41.6948 33.0304L41.0907 33.4105ZM46.3051 26.7572C45.7096 25.0026 46.5206 23.2926 48.3401 22.6751C50.1596 22.0575 51.8439 22.9208 52.4393 24.6753C53.0348 26.4298 52.2238 28.1398 50.4043 28.7574C48.5848 29.3749 46.9005 28.5117 46.3051 26.7572ZM47.0199 26.5146C47.4962 27.9182 48.8236 28.5837 50.1882 28.1205C51.5658 27.653 52.2053 26.3345 51.7245 24.9179C51.2482 23.5142 49.9338 22.8443 48.5562 23.3119C47.2046 23.7706 46.5391 25.098 47.0199 26.5146ZM56.4156 26.8843L56.0187 20.7211L56.6898 20.6778L59.4724 23.9506L61.7163 20.3541L62.36 20.3127L62.7569 26.4759L62.0447 26.5218L61.7175 21.4405L59.535 24.923L59.4939 24.9257L56.8006 21.7572L57.1278 26.8384L56.4156 26.8843ZM71.2989 26.1796L71.4231 26.763C70.7581 27.2348 69.8273 27.3474 69.019 27.1901C67.106 26.8179 66.0404 25.3243 66.4126 23.4113C66.756 21.6465 68.1037 20.4685 70.0975 20.8565C71.6603 21.1605 72.6361 22.4689 72.3137 24.126C72.2691 24.355 72.2216 24.5275 72.1632 24.6839L67.1651 23.7115C66.936 25.1769 67.7329 26.2548 69.1879 26.5379C70.0097 26.6977 70.7974 26.5294 71.2989 26.1796ZM69.9017 21.5035C68.5546 21.2414 67.5893 21.9624 67.2374 23.1243L71.6023 23.9736C71.8244 22.6885 71.1681 21.7499 69.9017 21.5035ZM72.7945 29.3813L73.7228 27.346L74.4221 27.6649C74.9767 27.3748 75.973 26.3811 76.8941 24.6592L77.7048 23.1132L81.2885 24.7476L79.0048 29.755L79.9414 30.1821L79.0131 32.2175L78.4012 31.9384L79.0504 30.5149L74.0556 28.2369L73.4064 29.6604L72.7945 29.3813ZM77.4045 25.1937C76.5393 26.76 75.5612 27.747 75.1089 27.9781L78.3555 29.4588L80.3602 25.0634L78.0376 24.0041L77.4045 25.1937ZM89.9513 30.4441L84.2142 33.8306C82.152 35.0348 81.3689 35.1095 80.7041 34.6007C80.388 34.3588 80.2015 34.0605 80.0567 33.7077L80.5756 33.4136C80.6942 33.6426 80.832 33.869 81.0282 34.0191C81.5295 34.4028 82.1978 34.2748 83.371 33.6L83.6802 33.4218L85.0141 26.6656L85.6899 27.1828L84.7158 31.9331L84.4807 32.963C84.7488 32.7707 85.0471 32.5842 85.3537 32.3868L89.3083 29.952L89.9513 30.4441ZM92.0518 39.9162L91.7776 40.4459C90.9642 40.3885 90.1734 39.8849 89.6485 39.2504C88.4062 37.7489 88.5304 35.9183 90.032 34.6759C91.4172 33.5298 93.2063 33.4747 94.5011 35.0397C95.516 36.2663 95.4399 37.8968 94.1392 38.9729C93.9595 39.1216 93.8133 39.2248 93.6689 39.3086L90.4231 35.3855C89.316 36.3726 89.248 37.7114 90.1929 38.8535C90.7266 39.4985 91.4422 39.8683 92.0518 39.9162ZM93.9392 35.4155C93.0643 34.3581 91.8608 34.3028 90.8515 34.9776L93.6861 38.4037C94.6732 37.5514 94.7616 36.4095 93.9392 35.4155ZM97.4848 40.1881L98.1145 39.8522L100.763 44.8171L100.133 45.153L98.9768 42.9854L94.1572 45.5561L93.8214 44.9264L98.641 42.3557L97.4848 40.1881Z" fill="white"/>
<g clip-path="url(#clip0_1_6830)">
<path d="M84.1197 52.9541L83.4284 58.7075H82.9257L83.2966 54.2847C82.0327 53.8406 80.4468 53.4388 77.1756 53.4388H74.8691L69.8639 81.6185H74.0151L73.9289 82.1016H62.0984L62.1846 81.6185H66.3797L71.3848 53.4388H68.9937C65.3858 53.4388 63.6502 53.8829 62.5295 54.2847L61.194 58.7075H60.6914L62.2221 52.9541H84.1197Z" fill="white"/>
<path d="M53.0964 60.1402L53.0101 60.6233C53.0101 60.6233 61.288 60.6233 64.8926 60.6233C64.46 65.0591 62.0623 73.2736 53.9341 73.2736C48.8997 73.2736 43.4065 69.4608 45.3471 58.5347C47.0372 49.0222 52.8198 43.6608 58.905 43.6608C62.8203 43.6608 65.7483 46.1187 66.6396 48.095L66.3469 51.1596H66.8495C67.0154 49.99 67.126 48.6595 67.2496 47.4915C67.331 46.322 67.4351 45.0321 67.6075 43.8235H67.1455L66.8544 46.3269C65.5205 44.7767 62.5552 43.1777 58.9896 43.1777C50.5198 43.1777 43.1251 49.5476 41.5571 58.3769C40.2314 65.835 42.7673 73.8055 53.843 73.8055C56.8262 73.8055 59.0579 72.8165 60.722 71.3558L59.0677 80.7349H59.3263C60.2958 78.7943 61.628 76.9904 62.7845 75.6322L65.5254 60.6249C66.6445 60.6249 68.359 60.6249 68.359 60.6249L68.4452 60.1418H53.0964V60.1402Z" fill="white"/>
<path d="M62.678 88.7156C48.2986 88.7156 36.6016 77.0185 36.6016 62.6392C36.6016 48.2598 48.2986 36.5627 62.678 36.5627C77.0574 36.5627 88.7544 48.2614 88.7544 62.6392C88.7544 77.0169 77.0574 88.7156 62.678 88.7156ZM62.678 37.2541C48.6809 37.2541 37.2929 48.6421 37.2929 62.6392C37.2929 76.6363 48.6809 88.0243 62.678 88.0243C76.6751 88.0243 88.0631 76.6363 88.0631 62.6392C88.0631 48.6421 76.6751 37.2541 62.678 37.2541Z" fill="white"/>
</g>
<circle cx="26.3028" cy="62.0748" r="2.05867" fill="white"/>
<circle cx="100.414" cy="62.0748" r="2.05867" fill="white"/>
<defs>
<clipPath id="clip0_1_6830">
<rect width="52.1529" height="52.1529" fill="white" transform="translate(36.6016 36.5627)"/>
</clipPath>
</defs>
</svg>
