<svg width="112" height="120" viewBox="0 0 112 120" fill="none" xmlns="http://www.w3.org/2000/svg">
<path d="M55.2271 0.00369021C36.6171 0.27369 21.3471 15.4437 20.9571 34.0437C20.6971 46.3937 26.8772 57.3137 36.3772 63.6837C43.2972 68.3337 48.7771 74.8338 51.7871 82.6038L53.9771 88.2537C54.5971 89.8537 56.8671 89.8537 57.4871 88.2537L59.5871 82.8338C62.6171 75.0438 67.9971 68.4037 74.9571 63.7737C84.3371 57.5437 90.5171 46.8937 90.5171 34.7937C90.5171 15.4137 74.6671 -0.27631 55.2171 0.00369021H55.2271ZM55.7371 48.8238C47.9871 48.8238 41.6971 42.5437 41.6971 34.7837C41.6971 27.0237 47.9771 20.7438 55.7371 20.7438C63.4971 20.7438 69.7771 27.0237 69.7771 34.7837C69.7771 42.5437 63.4871 48.8238 55.7371 48.8238Z" fill="#CCA770"/>
<path d="M111.348 117.423L92.7484 74.7329C92.5184 74.2129 92.0084 73.8828 91.4484 73.8828H76.0584C75.5184 73.8828 75.0183 74.1929 74.7784 74.6829L60.4984 104.213L35.4184 96.5328L38.9684 75.5328C39.0384 75.1228 38.9183 74.7028 38.6483 74.3828C38.3783 74.0628 37.9784 73.8828 37.5684 73.8828H20.0183C19.4583 73.8828 18.9484 74.2129 18.7184 74.7329L0.118437 117.423C-0.0715628 117.863 -0.0315774 118.363 0.228423 118.763C0.488423 119.163 0.938364 119.403 1.41836 119.403H30.3284C30.3284 119.403 30.3584 119.403 30.3784 119.403H110.038C110.518 119.403 110.958 119.163 111.228 118.763C111.488 118.363 111.528 117.863 111.338 117.423H111.348ZM76.9484 76.7129H90.5183L98.0384 93.9729L63.9684 103.543L76.9484 76.7029V76.7129ZM20.9584 76.7129H35.9084L32.6984 95.6929L15.0484 90.2828L20.9584 76.7129ZM29.1684 116.563H3.59842L13.9084 92.8928L32.2184 98.5028L29.1684 116.563ZM54.5284 116.563H32.0384L34.9484 99.3429L59.2484 106.783L54.5183 116.563H54.5284ZM57.6784 116.563L62.3284 106.953L99.1884 96.5929L107.888 116.563H57.6784Z" fill="#667C89"/>
</svg>
