<svg width="17" height="27" viewBox="0 0 17 27" fill="none" xmlns="http://www.w3.org/2000/svg">
<path d="M8.50214 0H8.49765C3.80445 0 0 3.80467 0 8.49786V8.50214C0 13.1953 3.80445 17 8.49765 17H8.50214C13.1953 17 17 13.1953 17 8.50214V8.49786C17 3.80467 13.1953 0 8.50214 0Z" fill="#CCA870"/>
<path d="M8.50184 26.2191L16.0189 12.4883H0.980469L8.50184 26.2191Z" fill="#CCA870"/>
<path d="M8.49935 12.4228C10.666 12.4228 12.4223 10.6663 12.4223 8.49963C12.4223 6.33298 10.666 4.57666 8.49935 4.57666C6.33269 4.57666 4.57617 6.33298 4.57617 8.49963C4.57617 10.6663 6.33269 12.4228 8.49935 12.4228Z" fill="#00273F"/>
</svg>
