<svg width="40" height="40" viewBox="0 0 40 40" fill="none" xmlns="http://www.w3.org/2000/svg">
<path d="M8.99331 3.20178C9.38897 3.03235 9.82166 2.96798 10.2495 3.01489C10.6773 3.0618 11.0858 3.21841 11.4354 3.46955C13.2347 4.78339 14.6629 6.54708 15.891 8.26793L17.0585 9.96022L17.6047 10.7635C17.921 11.2239 18.0765 11.7759 18.0468 12.3338C18.017 12.8916 17.8038 13.424 17.4404 13.8482L17.1727 14.1195L13.8738 16.5687C13.7169 16.6851 13.6064 16.8537 13.5626 17.0441C13.5189 17.2345 13.5443 17.4343 13.6345 17.6076C14.3844 18.9643 15.7089 20.9886 17.2298 22.5096C18.7542 24.0305 20.8715 25.4443 22.3209 26.2762C22.6352 26.4547 23.0135 26.3975 23.2707 26.1655L23.4062 26.0048L25.552 22.7381C25.9453 22.2126 26.5271 21.8601 27.1751 21.7549C27.823 21.6497 28.4865 21.7999 29.0258 22.174L30.9644 23.5271C32.8923 24.9016 34.7453 26.3797 36.2126 28.2541C36.4842 28.6063 36.6567 29.0246 36.7126 29.4658C36.7685 29.907 36.7056 30.3551 36.5305 30.7639C35.1167 34.0628 31.5357 36.8726 27.8155 36.7369L27.2479 36.7012L26.566 36.637L26.1804 36.587L25.3307 36.4442C22.0318 35.8229 16.7442 33.9521 11.264 28.4754C5.78724 22.9951 3.91645 17.7076 3.29523 14.4087L3.15242 13.559L3.06316 12.8164L3.01675 12.1916L3.00247 11.9238C2.8708 8.19653 5.69085 4.61559 8.99331 3.20178Z" fill="#CCA870"/>
</svg>
