<svg width="41" height="41" viewBox="0 0 41 41" fill="none" xmlns="http://www.w3.org/2000/svg">
<path d="M35.379 6.24342C35.379 6.24342 38.6977 4.94936 38.4211 8.09209C38.3289 9.38617 37.4993 13.9154 36.854 18.8144L34.6415 33.3264C34.6415 33.3264 34.4572 35.4523 32.7978 35.8221C31.1384 36.1918 28.6494 34.528 28.1884 34.1583C27.8197 33.881 21.2746 29.7215 18.9698 27.688C18.3245 27.1334 17.587 26.0241 19.062 24.7301L28.7416 15.4868C29.8478 14.3776 30.9541 11.7894 26.3447 14.9322L13.4387 23.7134C13.4387 23.7134 11.9637 24.6377 9.19818 23.8058L3.20605 21.9571C3.20605 21.9571 0.993576 20.5706 4.77321 19.1841C13.9918 14.8397 25.3307 10.4029 35.379 6.24342Z" fill="#CCA870"/>
</svg>
