<svg width="40" height="40" viewBox="0 0 40 40" fill="none" xmlns="http://www.w3.org/2000/svg">
<path d="M20.3745 14.7641C18.4305 15.5734 14.5431 17.2488 8.71246 19.7901C7.76446 20.1661 7.26846 20.5341 7.22446 20.8941C7.14846 21.5021 7.91046 21.7421 8.94846 22.0681L9.38446 22.2081C10.4045 22.5401 11.7805 22.9281 12.4945 22.9441C13.1425 22.9574 13.8651 22.6908 14.6625 22.1441C20.1105 18.4641 22.9225 16.6048 23.0985 16.5661C23.2245 16.5381 23.3965 16.5021 23.5125 16.6061C23.6305 16.7101 23.6185 16.9061 23.6065 16.9601C23.5305 17.2821 20.5385 20.0641 18.9905 21.5021C18.5318 21.9341 18.0765 22.3694 17.6245 22.8081C16.6765 23.7221 15.9645 24.4081 17.6645 25.5281C19.3865 26.6641 21.1245 27.7961 22.8045 28.9941C23.6325 29.5861 24.3765 30.1141 25.2965 30.0321C25.8305 29.9821 26.3825 29.4801 26.6625 27.9801C27.3265 24.4401 28.6285 16.7641 28.9285 13.6001C28.9459 13.3377 28.9345 13.0741 28.8945 12.8141C28.8708 12.6049 28.7695 12.4122 28.6105 12.2741C28.3705 12.0781 28.0005 12.0381 27.8365 12.0401C27.0845 12.0541 25.9305 12.4541 20.3765 14.7641" fill="#CCA870"/>
<circle cx="20" cy="20" r="19" stroke="#CCA870" stroke-width="2"/>
</svg>
