<svg width="47" height="47" viewBox="0 0 47 47" fill="none" xmlns="http://www.w3.org/2000/svg">
<path d="M23.6615 17.1458C21.4039 18.0857 16.8894 20.0313 10.1181 22.9826C9.01721 23.4192 8.4412 23.8466 8.3901 24.2646C8.30184 24.9707 9.18676 25.2495 10.3922 25.628L10.8986 25.7906C12.0831 26.1762 13.6811 26.6268 14.5103 26.6454C15.2628 26.6608 16.102 26.3512 17.028 25.7163C23.3549 21.4426 26.6205 19.2834 26.8249 19.2385C26.9712 19.2059 27.171 19.1641 27.3057 19.2849C27.4427 19.4057 27.4288 19.6333 27.4148 19.696C27.3266 20.07 23.8519 23.3008 22.0542 24.9707C21.5215 25.4724 20.9927 25.978 20.4678 26.4874C19.3669 27.5489 18.54 28.3455 20.5143 29.6462C22.5141 30.9655 24.5325 32.2801 26.4835 33.6713C27.445 34.3588 28.3091 34.972 29.3775 34.8768C29.9976 34.8187 30.6387 34.2357 30.9638 32.4938C31.735 28.3827 33.247 19.4684 33.5954 15.794C33.6156 15.4892 33.6024 15.1831 33.5559 14.8812C33.5285 14.6382 33.4107 14.4144 33.2261 14.2541C32.9474 14.0264 32.5177 13.98 32.3272 13.9823C31.4539 13.9986 30.1138 14.4631 23.6638 17.1458" fill="#FFFDF8"/>
<circle cx="23.2264" cy="23.2264" r="22.0651" stroke="#FFFDF8" stroke-width="2.32264"/>
</svg>
