<svg width="40" height="40" viewBox="0 0 40 40" fill="none" xmlns="http://www.w3.org/2000/svg">
<circle cx="20" cy="20" r="19" stroke="#FFFDF8" stroke-width="2"/>
<path d="M19.248 28.9668C19.248 29.5191 19.6958 29.9668 20.248 29.9668C20.8003 29.9668 21.248 29.5191 21.248 28.9668H20.248H19.248ZM20.9552 10.7597C20.5646 10.3692 19.9315 10.3692 19.5409 10.7597L13.177 17.1237C12.7865 17.5142 12.7865 18.1473 13.177 18.5379C13.5675 18.9284 14.2007 18.9284 14.5912 18.5379L20.248 12.881L25.9049 18.5379C26.2954 18.9284 26.9286 18.9284 27.3191 18.5379C27.7096 18.1473 27.7096 17.5142 27.3191 17.1237L20.9552 10.7597ZM20.248 28.9668H21.248V11.4668H20.248H19.248V28.9668H20.248Z" fill="white"/>
</svg>
