<svg width="77" height="54" viewBox="0 0 77 54" fill="none" xmlns="http://www.w3.org/2000/svg">
<path d="M69.0441 0H7.29664C3.27306 0 0 3.27313 0 7.2904V46.6874C0 50.711 3.27306 53.9841 7.29664 53.9841H69.0441C73.0676 53.9841 76.3407 50.711 76.3407 46.6874V7.2904C76.3407 3.26683 73.0676 0 69.0441 0ZM74.5497 46.6874C74.5497 49.7208 72.0775 52.193 69.0441 52.193H7.29664C4.26319 52.193 1.79104 49.7208 1.79104 46.6874V7.2904C1.79104 4.25696 4.26319 1.7848 7.29664 1.7848H69.0441C72.0775 1.7848 74.5497 4.25696 74.5497 7.2904V46.6874Z" fill="#667C89"/>
<ellipse cx="37.4716" cy="27.0414" rx="17.746" ry="17.746" fill="#CCA770"/>
<path d="M38.4395 25.4647C35.5816 24.2903 35.1878 23.2651 35.1743 22.4233C35.1607 21.4051 36.016 20.2239 37.6317 20.0203C39.2067 19.8234 40.9852 20.4751 41.4944 20.8824C41.9153 21.2151 42.5194 21.1403 42.8453 20.7262C43.1711 20.3121 43.1033 19.7011 42.6892 19.3753C41.9356 18.7847 40.4693 18.2416 38.9487 18.1058V15.4787C38.9487 14.9492 38.521 14.5148 37.9847 14.5148C37.4484 14.5148 37.0207 14.9424 37.0207 15.4787V18.1805C34.5294 18.6625 33.2192 20.6923 33.2463 22.4641C33.2871 25.0981 35.6494 26.4082 37.7064 27.2568C41.3654 28.7638 41.6641 30.0944 41.4333 31.3028C41.3179 31.9002 40.7884 33.3054 38.2698 33.4208C36.6542 33.4887 34.8077 32.7215 33.8301 31.9205C33.416 31.5811 32.8118 31.6422 32.4724 32.0563C32.133 32.4704 32.1941 33.0746 32.6082 33.414C33.6197 34.2422 35.2693 35.0365 37.0207 35.2741V38.0302C37.0207 38.5597 37.4484 38.9942 37.9847 38.9942C38.521 38.9942 38.9487 38.5665 38.9487 38.0302V35.2945C41.7184 34.955 43.0218 33.2375 43.3205 31.6625C43.9722 28.2004 40.8495 26.4761 38.4395 25.4782V25.4647Z" fill="#00273F"/>
</svg>
