<svg width="68" height="68" viewBox="0 0 68 68" fill="none" xmlns="http://www.w3.org/2000/svg">
<path d="M33.9531 53.9448C36.7164 53.9448 38.9531 51.7081 38.9531 48.9449C38.9531 46.1816 36.7164 43.9448 33.9531 43.9448C31.1898 43.9448 28.9531 46.1816 28.9531 48.9449C28.9531 51.7081 31.1898 53.9448 33.9531 53.9448Z" fill="#CCA770"/>
<path d="M37.5941 38.9448L30.732 38.9448L28.9531 13.9449L38.9531 13.9448L37.5941 38.9448Z" fill="#CCA870"/>
<path d="M33.9348 67.9738C25.1759 67.9738 16.5123 64.5655 9.93419 57.9874C-3.3114 44.7418 -3.3114 23.1902 9.93419 9.95055C16.3514 3.53332 24.8779 0 33.9526 0C43.0273 0 51.5538 3.53332 57.9711 9.95055C69.0597 21.0392 71.1332 38.0565 63.0715 51.457L66.3784 65.3819C66.4439 65.6679 66.3605 65.9658 66.152 66.1743C65.9434 66.3828 65.6455 66.4663 65.3595 66.4007L51.4347 63.0938C45.9827 66.3769 39.9349 67.9797 33.9288 67.9797L33.9348 67.9738ZM33.9526 1.68621C25.3308 1.68621 17.2273 5.04676 11.1259 11.1422C-1.45833 23.7264 -1.45833 44.2056 11.1259 56.7898C21.7438 67.4077 38.0818 69.3263 50.8507 61.4612C51.0414 61.342 51.2678 61.3063 51.4883 61.3599L64.4181 64.4285L61.3495 51.4987C61.2959 51.2782 61.3376 51.0518 61.4508 50.8612C69.3159 38.0863 67.3913 21.7542 56.7794 11.1363C50.6839 5.0408 42.5745 1.68025 33.9526 1.68025V1.68621Z" fill="#667C89"/>
</svg>
