<svg width="97" height="75" viewBox="0 0 97 75" fill="none" xmlns="http://www.w3.org/2000/svg">
<path d="M76.9142 14.1206H8.12837C3.64615 14.1206 0 17.7668 0 22.242V66.1298C0 70.612 3.64615 74.2582 8.12837 74.2582H76.9142C81.3964 74.2582 85.0426 70.612 85.0426 66.1298V22.242C85.0426 17.7598 81.3964 14.1206 76.9142 14.1206ZM83.0474 66.1298C83.0474 69.509 80.2934 72.2629 76.9142 72.2629H8.12837C4.74914 72.2629 1.99519 69.509 1.99519 66.1298V22.242C1.99519 18.8628 4.74914 16.1089 8.12837 16.1089H76.9142C80.2934 16.1089 83.0474 18.8628 83.0474 22.242V66.1298Z" fill="#667C89"/>
<circle cx="41.7434" cy="44.2445" r="19.7688" fill="#CCA770"/>
<path d="M42.8215 42.4881C39.6378 41.1798 39.1991 40.0378 39.184 39.1001C39.1689 37.9657 40.1217 36.65 41.9216 36.4231C43.676 36.2038 45.6574 36.9298 46.2246 37.3835C46.6934 37.7541 47.3665 37.6708 47.7295 37.2095C48.0924 36.7482 48.0168 36.0676 47.5555 35.7046C46.7161 35.0467 45.0826 34.4417 43.3887 34.2905V31.3638C43.3887 30.774 42.9122 30.29 42.3148 30.29C41.7174 30.29 41.241 30.7664 41.241 31.3638V34.3736C38.4656 34.9106 37.0061 37.1717 37.0363 39.1455C37.0817 42.0797 39.7134 43.5392 42.0048 44.4845C46.0809 46.1633 46.4136 47.6456 46.1565 48.9917C46.0279 49.6572 45.4381 51.2226 42.6324 51.3511C40.8326 51.4268 38.7756 50.5721 37.6867 49.6798C37.2254 49.3017 36.5523 49.3698 36.1742 49.8311C35.7961 50.2924 35.8642 50.9654 36.3255 51.3436C37.4522 52.2662 39.2899 53.151 41.241 53.4156V56.4859C41.241 57.0758 41.7174 57.5598 42.3148 57.5598C42.9122 57.5598 43.3887 57.0833 43.3887 56.4859V53.4383C46.4741 53.0602 47.9261 51.1469 48.2588 49.3924C48.9848 45.5356 45.5061 43.6148 42.8215 42.5031V42.4881Z" fill="#00273F"/>
<circle cx="83.6304" cy="12.7085" r="11.7671" fill="#00273F" stroke="#667C89" stroke-width="1.88274"/>
<path d="M79.0469 13.4763V11.9182H83.2314V7.66687H84.9008V11.9182H89.1521V13.4763H84.9008V17.7721H83.2314V13.4763H79.0469Z" fill="#CCA870"/>
</svg>
