<svg width="74" height="78" viewBox="0 0 74 78" fill="none" xmlns="http://www.w3.org/2000/svg">
<path d="M57.7496 47.2948C60.7761 47.2948 63.2296 44.8413 63.2296 41.8148C63.2296 38.7882 60.7761 36.3347 57.7496 36.3347C54.723 36.3347 52.2695 38.7882 52.2695 41.8148C52.2695 44.8413 54.723 47.2948 57.7496 47.2948Z" fill="#CCA770"/>
<path d="M36.8277 47.2948C39.8542 47.2948 42.3077 44.8413 42.3077 41.8148C42.3077 38.7882 39.8542 36.3347 36.8277 36.3347C33.8012 36.3347 31.3477 38.7882 31.3477 41.8148C31.3477 44.8413 33.8012 47.2948 36.8277 47.2948Z" fill="#CCA770"/>
<path d="M57.7496 66.1774C60.7761 66.1774 63.2296 63.7239 63.2296 60.6973C63.2296 57.6708 60.7761 55.2173 57.7496 55.2173C54.723 55.2173 52.2695 57.6708 52.2695 60.6973C52.2695 63.7239 54.723 66.1774 57.7496 66.1774Z" fill="#CCA770"/>
<path d="M36.8277 66.1774C39.8542 66.1774 42.3077 63.7239 42.3077 60.6973C42.3077 57.6708 39.8542 55.2173 36.8277 55.2173C33.8012 55.2173 31.3477 57.6708 31.3477 60.6973C31.3477 63.7239 33.8012 66.1774 36.8277 66.1774Z" fill="#CCA770"/>
<path d="M15.9136 66.1774C18.9402 66.1774 21.3937 63.7239 21.3937 60.6973C21.3937 57.6708 18.9402 55.2173 15.9136 55.2173C12.8871 55.2173 10.4336 57.6708 10.4336 60.6973C10.4336 63.7239 12.8871 66.1774 15.9136 66.1774Z" fill="#CCA770"/>
<path d="M68.7845 8.52449H58.1802V4.46752C58.1802 2.00458 56.1756 0 53.7127 0C51.2497 0 49.2452 2.00458 49.2452 4.46752V8.52449H24.5268V4.46752C24.5268 2.00458 22.5222 0 20.0593 0C17.5963 0 15.5918 2.00458 15.5918 4.46752V8.52449H4.98746C2.23717 8.52449 0 10.7617 0 13.512V73.0125C0 75.7628 2.23717 78 4.98746 78H68.7776C71.5279 78 73.7651 75.7628 73.7651 73.0125V13.512C73.7651 10.7617 71.5279 8.52449 68.7776 8.52449H68.7845ZM51.1881 4.46752C51.1881 3.07186 52.3238 1.94296 53.7127 1.94296C55.1015 1.94296 56.2372 3.0787 56.2372 4.46752V14.5177C56.2372 15.9133 55.1015 17.0422 53.7127 17.0422C52.3238 17.0422 51.1881 15.9065 51.1881 14.5177V4.46752ZM17.5348 4.46752C17.5348 3.07186 18.6705 1.94296 20.0593 1.94296C21.4481 1.94296 22.5838 3.0787 22.5838 4.46752V14.5177C22.5838 15.9133 21.4481 17.0422 20.0593 17.0422C18.6705 17.0422 17.5348 15.9065 17.5348 14.5177V4.46752ZM4.9943 10.4607H15.5986V14.5177C15.5986 16.9806 17.6032 18.9852 20.0661 18.9852C22.5291 18.9852 24.5336 16.9806 24.5336 14.5177V10.4607H49.252V14.5177C49.252 16.9806 51.2566 18.9852 53.7195 18.9852C56.1824 18.9852 58.187 16.9806 58.187 14.5177V10.4607H68.7913C70.4743 10.4607 71.8426 11.829 71.8426 13.512V24.9646H1.94299V13.512C1.94299 11.829 3.31129 10.4607 4.9943 10.4607ZM68.7845 76.0638H4.9943C3.31129 76.0638 1.94299 74.6955 1.94299 73.0125V26.9008H71.8358V73.0125C71.8358 74.6955 70.4675 76.0638 68.7845 76.0638Z" fill="#667C89"/>
</svg>
