<svg width="40" height="40" viewBox="0 0 40 40" fill="none" xmlns="http://www.w3.org/2000/svg">
<path d="M3.13672 28.7617L3.0293 28.5498C1.73229 25.9806 1.00005 23.0771 1 20C1 9.50659 9.50659 1 20 1C30.4934 1 39 9.50659 39 20L38.9941 20.4902C38.734 30.757 30.3294 39 20 39C17.3175 39 15.2188 38.5167 13.8027 38.041C13.0945 37.8031 12.557 37.5669 12.2031 37.3945C12.0262 37.3083 11.8948 37.2379 11.8115 37.1914C11.7701 37.1683 11.7402 37.151 11.7227 37.1406C11.714 37.1355 11.7087 37.1315 11.7061 37.1299L11.4629 36.9775H3.13672V28.7617Z" stroke="#CCA870" stroke-width="2"/>
<path d="M13.5678 10.1379C13.8019 10.0377 14.0579 9.99961 14.311 10.0274C14.5642 10.0551 14.8058 10.1478 15.0126 10.2964C16.0773 11.0737 16.9222 12.1172 17.6488 13.1354L18.3396 14.1366L18.6628 14.6119C18.8499 14.8843 18.9419 15.2109 18.9243 15.5409C18.9067 15.871 18.7806 16.1859 18.5656 16.4369L18.4072 16.5975L16.4554 18.0465C16.3625 18.1154 16.2972 18.2151 16.2713 18.3278C16.2453 18.4405 16.2604 18.5587 16.3138 18.6612C16.7574 19.4639 17.5411 20.6616 18.441 21.5615C19.3429 22.4613 20.5956 23.2978 21.4532 23.79C21.639 23.8956 21.863 23.8618 22.015 23.7245L22.0953 23.6295L23.3648 21.6967C23.5975 21.3858 23.9418 21.1772 24.3251 21.115C24.7085 21.0527 25.101 21.1416 25.4201 21.3629L26.5671 22.1635C27.7078 22.9767 28.8041 23.8513 29.6723 24.9602C29.8329 25.1686 29.935 25.4161 29.9681 25.6772C30.0011 25.9382 29.9639 26.2034 29.8603 26.4452C29.0238 28.397 26.9051 30.0594 24.7041 29.9792L24.3682 29.958L23.9647 29.92L23.7366 29.8904L23.2339 29.806C21.2821 29.4384 18.1537 28.3315 14.9112 25.0912C11.6709 21.8488 10.564 18.7204 10.1965 16.7686L10.112 16.2658L10.0592 15.8265L10.0317 15.4568L10.0233 15.2984C9.94302 13.0931 11.6139 10.9744 13.5678 10.1379Z" fill="#CCA870"/>
</svg>
