<svg width="45" height="45" viewBox="0 0 45 45" fill="none" xmlns="http://www.w3.org/2000/svg">
<path d="M3.47266 31.8428L3.35352 31.6074C1.91768 28.7632 1.1075 25.5491 1.10742 22.1426C1.10742 10.5251 10.5251 1.10742 22.1426 1.10742C33.76 1.1075 43.1777 10.5252 43.1777 22.1426C43.1775 33.7598 33.7598 43.1777 22.1426 43.1777C19.1727 43.1777 16.849 42.6428 15.2812 42.1162C14.4971 41.8528 13.9016 41.5913 13.5098 41.4004C13.3141 41.305 13.1693 41.2273 13.0771 41.1758C13.0311 41.15 12.998 41.1307 12.9785 41.1191C12.9689 41.1135 12.9629 41.1092 12.96 41.1074L12.6914 40.9385H3.47266V31.8428Z" stroke="#FFFDF8" stroke-width="2.21424"/>
<path d="M15.021 11.2237C15.2802 11.1127 15.5636 11.0706 15.8439 11.1013C16.1241 11.132 16.3917 11.2346 16.6206 11.3991C17.7993 12.2597 18.7347 13.415 19.5392 14.5422L20.304 15.6507L20.6618 16.1769C20.869 16.4785 20.9708 16.8401 20.9513 17.2055C20.9319 17.5709 20.7923 17.9196 20.5542 18.1975L20.3788 18.3752L18.2179 19.9795C18.1151 20.0557 18.0428 20.1662 18.0141 20.2909C17.9854 20.4156 18.0021 20.5465 18.0612 20.66C18.5523 21.5487 19.42 22.8747 20.4162 23.871C21.4148 24.8672 22.8016 25.7933 23.7511 26.3382C23.9569 26.4551 24.2048 26.4177 24.3732 26.2657L24.462 26.1605L25.8675 24.0206C26.1252 23.6764 26.5063 23.4456 26.9307 23.3766C27.3551 23.3077 27.7897 23.4061 28.143 23.6511L29.4129 24.5375C30.6757 25.4378 31.8895 26.406 32.8506 27.6338C33.0285 27.8645 33.1415 28.1385 33.1781 28.4275C33.2147 28.7166 33.1735 29.0101 33.0588 29.2779C32.1327 31.4387 29.7871 33.2792 27.3502 33.1904L26.9784 33.167L26.5317 33.1249L26.2791 33.0921L25.7225 32.9986C23.5617 32.5917 20.0982 31.3662 16.5084 27.7788C12.9209 24.189 11.6955 20.7255 11.2886 18.5646L11.195 18.0081L11.1366 17.5216L11.1062 17.1124L11.0968 16.937C11.008 14.4955 12.8578 12.1498 15.021 11.2237Z" fill="#FFFDF8"/>
</svg>
