<svg width="410" height="116" viewBox="0 0 410 116" fill="none" xmlns="http://www.w3.org/2000/svg">
<path d="M292.443 33.9423H274.894L274.775 34.6208H284.175C276.696 50.6983 268.208 68.0217 259.673 82.401L247.374 34.6245H256.769L256.888 33.946H232.883L232.764 34.6245H239.446L249.387 71.9892C231.904 88.2929 224.296 100.637 223.016 107.882C222.178 112.639 224.303 115.353 228.041 115.353C245.249 115.353 267.563 71.6481 284.961 34.6245H292.321L292.443 33.9423ZM228.163 114.675C224.652 114.675 222.901 112.409 223.699 107.882C224.937 100.863 232.394 88.7453 249.609 72.6677L254.433 90.8958C245.145 105.049 236.087 114.675 228.163 114.675ZM321.098 33.2637C329.478 33.2637 334.499 38.8108 335.993 46.3971L336.712 46.171C335.147 38.3584 329.823 32.5852 321.217 32.5852C302.762 32.5852 291.865 46.8532 289.251 61.6849C286.118 79.4606 295.643 89.65 309.455 89.65C322.589 89.65 329.433 80.3654 332.852 74.4772L332.214 74.251C326.423 83.988 318.621 88.4041 311.491 88.4041C301.302 88.4041 294.438 79.7981 297.634 61.6812C301.465 39.9454 311.135 33.2637 321.098 33.2637ZM63.9467 34.6245H73.3463C70.8916 48.5514 67.5471 62.3634 63.3757 72.5565C57.2317 87.5031 51.6809 87.5031 49.1929 87.5031C47.0423 87.5031 45.637 86.4834 45.0215 85.4638L50.0272 69.2713L49.3672 69.1563L43.4716 87.7256H20.2749L34.4688 7.22302H41.6028C53.4904 7.22302 57.1279 7.79033 60.9581 9.82598L45.8855 37.2794H46.7568L66.4533 1.78722H65.3224L62.6712 6.54447H14.4349L14.3163 7.22302H25.6402L11.4426 87.7256H0.118653L0 88.4041H43.2528C44.3059 88.8565 45.7891 89.4238 47.6022 89.4238C53.1493 89.4238 58.3515 86.2535 63.5055 74.366C67.4989 65.1963 71.5887 48.4365 74.0248 34.6245H92.3679L83.0054 87.7256H73.947L73.8283 88.4041H99.0792L99.1979 87.7256H90.1394L99.5019 34.6245H108.56L108.679 33.946H64.0654L63.9467 34.6245ZM204.592 32.5852C200.854 32.5852 185.57 34.5096 176.953 51.2656H176.048C179.682 32.5852 186.623 20.2267 202.341 16.4891C214.996 13.4338 223.943 14.6648 229.909 10.9866C234.437 8.1982 235.998 2.46947 235.694 0H235.252C235.037 2.39531 232.991 5.17254 229.216 6.47031C224.499 8.09067 219.371 7.22302 209.994 9.03619C184.454 13.9047 178.021 34.9656 174.228 56.479C170.056 80.1429 183.549 89.6537 194.08 89.6537C205.404 89.6537 222.757 80.484 226.391 59.8754C229.105 44.4727 222.597 32.5852 204.592 32.5852ZM218.011 59.8717C216.713 67.2319 212.312 88.9714 194.877 88.9714C176.875 88.9714 180.776 66.2123 181.651 61.2325C183.527 50.5908 189.526 33.2674 204.473 33.2674C208.548 33.2637 222.542 34.1722 218.011 59.8717Z" fill="#000000"/>
<path d="M405.28 32.538C402.584 32.538 399.952 35.0037 398.146 38.6338C398.539 36.7576 398.876 35.1261 399.043 34.2807C399.203 33.4612 399.366 32.538 399.366 32.538L393.359 34.4216L393.285 34.8146C394.512 35.3597 394.72 36.2867 394.468 37.8366C394.364 38.4855 394.468 37.8366 394.275 38.8748C393.748 41.7002 389.996 59.9951 389.996 59.9951C389.981 60.0767 395.695 59.9951 395.695 59.9951C394.646 59.7467 395.276 53.8807 395.691 50.8069C396.622 52.6645 398.661 52.5718 399.477 52.5385C403.47 52.3753 408.439 48.0853 409.659 42.2824C409.874 41.2664 410 39.8908 410 39.0379C409.996 35.8417 408.814 32.538 405.28 32.538ZM405.617 42.6124C404.616 46.7059 402.506 51.1035 399.355 51.5002C397.883 51.6856 395.936 51.0998 396.336 47.2065C396.526 46.3166 396.767 45.182 397.03 43.9398C398.55 38.9193 401.802 34.7627 404.19 34.9592C405.651 35.0816 407 36.9689 405.617 42.6124Z" fill="#000000"/>
<path d="M387.537 32.9723L387.603 33.3653C388.649 33.9104 389.317 35.7606 388.427 37.5034C387.04 40.2213 384.73 44.7301 383.462 47.1996L381.849 32.9723H375.949L375.998 33.3653C377.392 33.9104 378.215 34.8374 378.404 36.2872C378.771 39.1126 380.095 49.9138 380.377 52.2238C377.136 56.195 374.01 56.525 372.976 55.2124C372.779 56.321 372.108 59.3764 371.975 60.2737C375.26 60.2737 378.779 58.1379 384.359 48.3268C386.524 44.5224 392.772 32.9723 392.772 32.9723H387.537Z" fill="#000000"/>
<path d="M371.504 49.0644C371.567 48.7084 371.634 48.3154 371.708 47.8927C372.105 45.6457 372.683 42.5755 373.214 39.8057C373.455 38.5524 373.885 36.0793 373.458 34.4515C373.151 33.2835 372.157 32.6049 371.237 32.5456C369.758 32.4529 367.24 33.2872 364.541 38.0333C363.855 39.2347 363.117 40.7883 362.435 42.5978C362.613 41.6597 362.791 40.7179 362.965 39.8057C363.206 38.5524 363.636 36.0793 363.21 34.4515C362.902 33.2835 361.912 32.5864 360.989 32.5456C359.513 32.4789 356.991 33.2872 354.292 38.0333C353.636 39.1828 352.931 40.6585 352.275 42.3679C352.872 39.2162 353.491 36.0162 353.829 34.2809C353.988 33.4615 354.151 32.5382 354.151 32.5382L348.144 34.4218L348.07 34.8149C349.298 35.3599 349.572 36.2869 349.32 37.8368C349.216 38.4857 349.32 37.8368 349.127 38.875C348.6 41.7005 347.889 45.4788 347.503 47.5145C347.336 48.397 346.654 52.0826 346.654 52.0826C346.639 52.1642 352.286 52.0826 352.286 52.0826C350.94 51.7675 350.87 50.1249 351.051 49.0644C351.114 48.7084 351.181 48.3154 351.255 47.8927C351.263 47.8593 351.266 47.8259 351.274 47.7926C352.234 43.903 354.322 40.1283 355.646 38.1112C356.446 36.8913 357.555 35.7196 358.497 35.7641C359.261 35.8012 359.706 36.3129 359.717 37.0619C359.717 37.136 359.713 37.2102 359.709 37.288V37.2918C359.698 37.466 359.676 37.6514 359.646 37.8442C359.543 38.4931 359.646 37.8442 359.454 38.8825C358.927 41.7079 358.096 45.4863 357.711 47.5219C357.544 48.4044 356.862 52.09 356.862 52.09C356.847 52.1716 362.494 52.09 362.494 52.09C361.148 51.7749 361.078 50.1323 361.259 49.0718C361.282 48.942 361.304 48.8085 361.33 48.6676C362.168 44.5333 364.474 40.2655 365.894 38.0964C366.695 36.8765 367.804 35.7233 368.746 35.7678C369.509 35.8049 369.954 36.3166 369.966 37.0656C369.966 37.1397 369.962 37.2139 369.958 37.2918V37.2955C369.947 37.4697 369.925 37.6551 369.895 37.8479C369.791 38.4968 369.895 37.8479 369.702 38.8862C369.176 41.7116 368.345 45.49 367.96 47.5256C367.793 48.4081 367.11 52.0938 367.11 52.0938C367.096 52.1753 372.743 52.0938 372.743 52.0938C371.397 51.7638 371.323 50.1249 371.504 49.0644Z" fill="#000000"/>
<path d="M135.24 90.1117C151.203 90.1117 164.144 77.1713 164.144 61.2085C164.144 45.2457 151.203 32.3053 135.24 32.3053C119.278 32.3053 106.337 45.2457 106.337 61.2085C106.337 77.1713 119.278 90.1117 135.24 90.1117Z" fill="url(#paint0_linear_1_9273)"/>
<defs>
<linearGradient id="paint0_linear_1_9273" x1="114.801" y1="40.7684" x2="155.678" y2="81.6451" gradientUnits="userSpaceOnUse">
<stop offset="0.3001" stop-color="#CCA870"/>
<stop offset="0.5498" stop-color="#DB9865"/>
<stop offset="0.6457" stop-color="#D79463"/>
<stop offset="0.7451" stop-color="#CE8A5B"/>
<stop offset="0.846" stop-color="#BD7A4E"/>
<stop offset="0.9474" stop-color="#A5633C"/>
<stop offset="0.9998" stop-color="#955531"/>
</linearGradient>
</defs>
</svg>
