<svg width="166" height="72" viewBox="0 0 166 72" fill="none" xmlns="http://www.w3.org/2000/svg">
<g clip-path="url(#clip0_1_6871)">
<path d="M120.461 9C111.186 9.03268 104.165 16.2622 104 25.8715C104 25.9211 104 25.9707 104 26.0203V26.2186C104 26.2704 104 26.3178 104 26.3673C104.166 36.0105 111.19 43.2388 120.474 43.2388C121.572 43.2517 122.67 43.1733 123.755 43.0045C124.685 42.8268 125.506 42.2855 126.04 41.4991C126.573 40.7128 126.774 39.7458 126.599 38.8105C126.513 38.3488 126.336 37.9088 126.08 37.5157C125.824 37.1226 125.494 36.7842 125.108 36.5198C124.721 36.2554 124.287 36.0702 123.829 35.9748C123.372 35.8795 122.9 35.8759 122.441 35.9643C121.788 36.0449 121.131 36.0825 120.473 36.0769C114.999 36.0769 111.165 31.9878 111.122 26.1205C111.165 20.2747 115.002 16.1845 120.461 16.1653C125.976 16.1845 129.828 20.3198 129.828 26.2197V39.659C129.828 40.1294 129.92 40.5952 130.099 41.0298C130.278 41.4644 130.54 41.8593 130.871 42.1919C131.202 42.5244 131.595 42.7882 132.027 42.968C132.459 43.1478 132.923 43.2403 133.39 43.24C133.858 43.2401 134.321 43.1476 134.754 42.9677C135.186 42.7878 135.578 42.524 135.909 42.1914C136.24 41.8589 136.502 41.4641 136.681 41.0295C136.86 40.595 136.952 40.1293 136.952 39.659V26.2186C136.952 16.4346 129.874 9.03268 120.461 9Z" fill="#00B7AC"/>
<path d="M28.5627 0C27.6178 0 26.7116 0.377379 26.0435 1.04915C25.3753 1.72092 25 2.63204 25 3.58207V38.7099C24.9999 39.1803 25.0919 39.6462 25.2709 40.0808C25.4499 40.5154 25.7124 40.9102 26.0432 41.2428C26.3741 41.5754 26.7669 41.8391 27.1992 42.019C27.6316 42.1988 28.0949 42.2912 28.5627 42.2909C29.0305 42.291 29.4937 42.1985 29.9259 42.0186C30.358 41.8387 30.7507 41.5749 31.0815 41.2424C31.4122 40.9098 31.6746 40.515 31.8535 40.0805C32.0324 39.646 32.1245 39.1802 32.1243 38.7099V3.58207C32.1243 2.63224 31.7491 1.7213 31.0812 1.04956C30.4133 0.377824 29.5074 0.000298783 28.5627 0Z" fill="#00B7AC"/>
<path d="M18.2249 0.109317C17.9358 0.100302 17.641 0.081145 17.3496 0.0653698C16.8498 0.0349464 16.2805 0 15.6686 0C6.27706 0 0.509896 5.87176 0.0302341 15.7887C0.0100206 15.9494 -6.06374e-05 16.1112 2.74368e-07 16.2732V38.9128C-0.000147081 39.3832 0.091903 39.849 0.270908 40.2836C0.449913 40.7182 0.712332 41.1131 1.04321 41.4456C1.37408 41.7782 1.7669 42.042 2.19921 42.2218C2.63152 42.4016 3.09485 42.494 3.56271 42.4937C4.03046 42.4939 4.49368 42.4014 4.92586 42.2215C5.35804 42.0415 5.7507 41.7778 6.08146 41.4452C6.41221 41.1127 6.67458 40.7179 6.85351 40.2833C7.03245 39.8488 7.12447 39.3831 7.12432 38.9128V17.1476C7.12432 8.19971 12.0016 7.16417 15.6686 7.16417C16.0642 7.16417 16.4755 7.18897 16.917 7.21489C17.2835 7.23743 17.6455 7.25772 18.0108 7.27012C18.4784 7.28423 18.9442 7.20554 19.3815 7.03855C19.8187 6.87156 20.219 6.61953 20.5594 6.29689C20.8997 5.97426 21.1735 5.58732 21.365 5.15823C21.5565 4.72914 21.662 4.26632 21.6755 3.7962C21.6896 3.32598 21.6114 2.85759 21.4453 2.41779C21.2792 1.97799 21.0286 1.57537 20.7077 1.23298C20.3869 0.890598 20.0021 0.615147 19.5753 0.422342C19.1485 0.229537 18.6881 0.123167 18.2204 0.109317" fill="#00B7AC"/>
<path d="M12.5571 16C12.0899 15.9997 11.6272 16.092 11.1955 16.2716C10.7638 16.4513 10.3716 16.7147 10.0412 17.0468C9.71085 17.379 9.44885 17.7734 9.27019 18.2074C9.09153 18.6415 8.99971 19.1067 9 19.5764C8.99985 20.0461 9.09177 20.5112 9.2705 20.9451C9.44922 21.379 9.71125 21.7733 10.0416 22.1053C10.372 22.4374 10.7642 22.7007 11.1958 22.8802C11.6274 23.0598 12.09 23.1521 12.5571 23.1518C13.0244 23.1521 13.4871 23.0598 13.9188 22.8803C14.3506 22.7007 14.7429 22.4374 15.0735 22.1054C15.404 21.7734 15.6662 21.3792 15.8452 20.9453C16.0241 20.5113 16.1163 20.0462 16.1165 19.5764C16.1165 19.1066 16.0244 18.6413 15.8455 18.2073C15.6666 17.7732 15.4044 17.3788 15.0738 17.0467C14.7433 16.7146 14.3509 16.4512 13.9191 16.2716C13.4872 16.092 13.0244 15.9997 12.5571 16Z" fill="#00B7AC"/>
<path d="M66.1824 9.37068C65.7629 9.16223 65.3065 9.03893 64.8396 9.00783C64.3726 8.97673 63.9041 9.03847 63.4608 9.18946C63.0176 9.34046 62.6083 9.57778 62.2563 9.88786C61.9043 10.198 61.6165 10.5747 61.4093 10.9967L52.0963 29.9753L42.7574 10.9933C42.3383 10.1419 41.6 9.49278 40.7049 9.18871C39.8098 8.88463 38.8312 8.9505 37.9844 9.37182C37.5648 9.58005 37.1902 9.86939 36.882 10.2233C36.5737 10.5772 36.3379 10.9887 36.1879 11.4343C36.0379 11.8798 35.9768 12.3508 36.0079 12.8202C36.0391 13.2895 36.1619 13.7481 36.3694 14.1697L48.1256 38.0634L43.134 48.235C42.7168 49.0873 42.6532 50.0712 42.957 50.9706C43.2609 51.87 43.9074 52.6113 44.7546 53.0318C45.2426 53.2739 45.7793 53.4003 46.3235 53.4014C46.9887 53.4018 47.6407 53.2149 48.2057 52.8618C48.7706 52.5087 49.2258 52.0035 49.5198 51.4036L67.7963 14.1663C68.0034 13.7446 68.1258 13.286 68.1567 12.8167C68.1875 12.3474 68.1261 11.8766 67.9759 11.4312C67.8257 10.9857 67.5898 10.5744 67.2815 10.2207C66.9732 9.86693 66.5986 9.57774 66.1791 9.36958" fill="#00B7AC"/>
<path d="M84.6596 9C75.7321 9.03155 69 16.4369 69 26.2197V39.6579C69.0009 40.6077 69.3767 41.5184 70.0449 42.1898C70.7132 42.8612 71.6191 43.2385 72.5638 43.2388C73.5085 43.2388 74.4145 42.8616 75.0827 42.1901C75.7508 41.5185 76.1263 40.6077 76.1266 39.6579V26.2197C76.1266 20.3187 79.6489 16.1845 84.6596 16.1653C89.6972 16.1845 93.2162 20.3187 93.2162 26.2197V39.6579C93.2165 40.6077 93.592 41.5185 94.2601 42.1901C94.9282 42.8616 95.8342 43.2388 96.7789 43.2388C97.7238 43.2388 98.6301 42.8617 99.2985 42.1902C99.967 41.5187 100.343 40.6079 100.344 39.6579V26.2197C100.344 16.4369 93.6096 9.03268 84.654 9" fill="#00B7AC"/>
<path d="M166.037 32.9882V33.0839C166.037 39.4526 161.369 43.4088 153.855 43.4088C149.369 43.4066 144.994 42.002 141.336 39.3895C140.919 39.0777 140.58 38.6714 140.348 38.2035C140.116 37.7356 139.997 37.2193 140 36.6965C139.998 36.2588 140.083 35.8251 140.251 35.421C140.418 35.0169 140.664 34.6505 140.974 34.3433C141.284 34.0361 141.652 33.7944 142.056 33.6323C142.461 33.4702 142.893 33.391 143.329 33.3994C144.058 33.3914 144.77 33.6189 145.362 34.0485C147.828 35.9957 150.864 37.0695 154 37.1032C157.1 37.1032 158.951 35.8716 158.951 33.8073V33.7104C158.951 31.6428 157.481 30.6974 152.115 29.3159C145.874 27.7125 141.101 25.948 141.101 19.132V19.0362C141.101 13.1273 145.874 9.00208 152.709 9.00208C156.441 8.94723 160.109 9.97661 163.274 11.9667C163.757 12.2617 164.156 12.6779 164.431 13.1745C164.706 13.6711 164.848 14.231 164.843 14.7994C164.844 15.237 164.759 15.6705 164.592 16.0745C164.425 16.4785 164.179 16.8449 163.87 17.1522C163.56 17.4595 163.192 17.7015 162.788 17.864C162.384 18.0266 161.952 18.1064 161.516 18.0987C160.878 18.1011 160.252 17.9222 159.711 17.5826C157.591 16.1973 155.14 15.4107 152.614 15.3054C149.924 15.3054 148.189 16.5054 148.189 18.3612V18.4559C148.189 20.7861 149.748 21.5185 155.504 22.9991C161.827 24.6589 166.039 26.9903 166.039 32.9904" fill="#00B7AC"/>
<path d="M130.176 58.1336C130.176 57.8331 130.057 57.5452 129.845 57.3327C129.634 57.1202 129.348 57.0006 129.049 57C128.9 56.9994 128.753 57.0283 128.615 57.0849C128.478 57.1416 128.353 57.225 128.247 57.3302C128.142 57.4355 128.058 57.5606 128.001 57.6985C127.944 57.8363 127.914 57.9842 127.913 58.1336V68.3536H123.566C122.503 68.3536 119.259 68.3536 119.259 63.3957V58.1381C119.258 57.8369 119.139 57.5485 118.927 57.3359C118.714 57.1234 118.427 57.0042 118.127 57.0045C117.828 57.0045 117.542 57.124 117.33 57.3366C117.119 57.5491 117 57.8374 117 58.1381V63.3957C117 67.9931 119.395 70.6275 123.566 70.6275H129.067C129.214 70.626 129.36 70.5953 129.495 70.5372C129.631 70.4791 129.754 70.3946 129.857 70.2887C129.96 70.1828 130.041 70.0575 130.096 69.9199C130.151 69.7824 130.178 69.6353 130.176 69.4872V69.4128C130.176 69.37 130.176 69.3272 130.176 69.2765V58.1336Z" fill="#00B7AC"/>
<path d="M134.254 66.085V53.1268C134.252 52.8285 134.133 52.5429 133.924 52.332C133.714 52.121 133.43 52.0018 133.133 52C132.835 51.9994 132.548 52.1175 132.336 52.3286C132.123 52.5397 132.003 52.8266 132 53.1268V66.085C131.999 66.3878 132.118 66.6785 132.331 66.8931C132.543 67.1078 132.832 67.2289 133.133 67.2298C133.432 67.2265 133.718 67.1042 133.928 66.8897C134.138 66.6752 134.255 66.3859 134.254 66.085Z" fill="#00B7AC"/>
<path d="M123.133 54.2671C123.432 54.2659 123.719 54.1483 123.933 53.9392C124.142 53.7249 124.26 53.437 124.26 53.1369C124.259 52.8346 124.141 52.5447 123.93 52.329C123.717 52.1195 123.431 52.0015 123.133 52C122.833 51.9992 122.544 52.1179 122.331 52.3302C122.12 52.5458 122.001 52.8357 122 53.138C122.001 53.439 122.12 53.7275 122.331 53.9415C122.545 54.1521 122.833 54.2694 123.133 54.2682" fill="#00B7AC"/>
<path d="M110.76 57.2903C110.46 57.2903 110.172 57.4095 109.96 57.6218C109.747 57.8342 109.626 58.1225 109.624 58.4239V64.9593H105.567C104.5 64.9593 101.256 64.9593 101.256 60.0014V53.1381C101.257 52.8379 101.139 52.5496 100.929 52.3363C100.719 52.123 100.434 52.0021 100.135 52C99.8347 51.9997 99.5462 52.1194 99.3334 52.3328C99.1205 52.5462 99.0006 52.8358 99 53.1381V59.9946C99 64.5908 101.395 67.2275 105.571 67.2275H110.478C110.516 67.2274 110.553 67.2247 110.59 67.2196H110.621H110.652C110.689 67.225 110.727 67.2277 110.764 67.2275C110.912 67.2275 111.058 67.1982 111.194 67.1412C111.331 67.0842 111.454 67.0007 111.558 66.8955C111.663 66.7903 111.745 66.6654 111.801 66.528C111.857 66.3907 111.885 66.2435 111.885 66.0951V58.4171C111.886 58.2686 111.857 58.1213 111.801 57.9838C111.745 57.8463 111.663 57.7213 111.559 57.616C111.455 57.5106 111.331 57.427 111.194 57.37C111.058 57.3129 110.912 57.2835 110.764 57.2835" fill="#00B7AC"/>
<path d="M110.134 54.2739C110.435 54.2728 110.723 54.1535 110.937 53.9415C111.147 53.7277 111.265 53.4398 111.267 53.1392C111.265 52.8363 111.144 52.5464 110.931 52.3324C110.717 52.122 110.43 52.0029 110.131 52C109.83 52.003 109.543 52.1244 109.331 52.3381C109.12 52.5522 109.001 52.8412 109 53.1426C109.002 53.4456 109.123 53.7355 109.336 53.9494C109.549 54.1596 109.835 54.2774 110.133 54.2773" fill="#00B7AC"/>
<path d="M95.118 57.0034C94.9699 57.0034 94.8232 57.0328 94.6863 57.0898C94.5494 57.1468 94.4251 57.2304 94.3204 57.3358C94.2157 57.4412 94.1327 57.5663 94.0761 57.7039C94.0195 57.8416 93.9904 57.9891 93.9906 58.1381V61.9793C93.9906 62.092 93.9682 64.696 91.9464 64.696H88.507L88.6415 64.3828C88.9676 63.6236 89.1383 62.8062 89.1436 61.9793V58.1381C89.1433 57.8374 89.0244 57.5492 88.8131 57.3365C88.6017 57.1238 88.3151 57.004 88.0161 57.0034C87.8676 57.0031 87.7205 57.0322 87.5832 57.0891C87.4459 57.1459 87.3211 57.2294 87.2159 57.3348C87.1107 57.4402 87.0271 57.5654 86.97 57.7032C86.9129 57.841 86.8834 57.9888 86.8831 58.1381V61.9793C86.8831 62.092 86.8573 64.696 84.8423 64.696H82.082V58.1268C82.0799 57.827 81.9599 57.5403 81.7483 57.3292C81.5366 57.118 81.2504 56.9997 80.9523 57C80.6539 56.9991 80.3673 57.1172 80.1553 57.3284C79.9433 57.5397 79.8233 57.8267 79.8215 58.1268V68.3457H75.5684C74.5049 68.3457 71.2605 68.3457 71.2605 63.3878V58.1279C71.2584 57.8282 71.1384 57.5414 70.9268 57.3303C70.7151 57.1192 70.4289 57.0008 70.1308 57.0011C69.8324 57.0002 69.5457 57.1184 69.3338 57.3296C69.1218 57.5408 69.0018 57.8279 69 58.1279V63.3878C69 67.9851 71.3949 70.6207 75.5684 70.6207H80.8021C80.8324 70.6207 80.8548 70.6207 80.8761 70.6207C80.8989 70.6195 80.9217 70.6195 80.9445 70.6207H80.9523C81.252 70.6198 81.5392 70.4996 81.7509 70.2863C81.9627 70.073 82.0817 69.784 82.082 69.4827V66.9699H92.119C92.1655 66.9699 92.2119 66.9669 92.258 66.9609C95.1886 66.7615 96.2466 63.8712 96.2466 61.9805V58.1392C96.2463 57.8382 96.1271 57.5496 95.9153 57.3368C95.7035 57.124 95.4163 57.0045 95.1169 57.0045" fill="#00B7AC"/>
<path d="M144.133 69.0034C143.985 69.0043 143.838 69.0347 143.701 69.0927C143.564 69.1507 143.44 69.2352 143.336 69.3414C143.23 69.4463 143.145 69.5715 143.087 69.7096C143.03 69.8478 143 69.9961 143 70.1459C143.003 70.4487 143.124 70.7383 143.336 70.9527C143.548 71.1644 143.834 71.2838 144.133 71.2851C144.433 71.2812 144.72 71.1599 144.933 70.9471C145.143 70.7324 145.26 70.4435 145.26 70.1425C145.261 69.9932 145.231 69.8452 145.175 69.7072C145.118 69.5692 145.035 69.4437 144.93 69.338C144.719 69.1247 144.432 69.0033 144.133 69" fill="#00B7AC"/>
<path d="M141.136 69.0056C140.836 69.01 140.549 69.1311 140.336 69.3437C140.123 69.5557 140.002 69.8443 140 70.1459C140.005 70.4484 140.125 70.7373 140.336 70.9527C140.549 71.1626 140.835 71.2817 141.133 71.2852C141.434 71.2825 141.721 71.1611 141.933 70.9471C142.147 70.7341 142.267 70.4449 142.269 70.1426C142.269 69.9928 142.239 69.8447 142.181 69.7066C142.123 69.5685 142.039 69.4433 141.933 69.3381C141.722 69.1233 141.434 69.0017 141.133 69" fill="#00B7AC"/>
<path d="M159.352 55.3015C156.932 55.1562 154.548 55.9403 152.681 57.4954L152.591 57.5754C152.435 57.7106 152.276 57.8537 152.113 58.0036L151.74 58.3472V53.1268C151.738 52.8274 151.618 52.541 151.407 52.3299C151.196 52.1189 150.91 52.0003 150.613 52C150.315 52.0003 150.029 52.1188 149.817 52.3298C149.606 52.5408 149.486 52.8272 149.483 53.1268V62.3203C149.483 62.3496 149.491 62.3665 149.491 62.3857C149.491 62.4107 149.488 62.4356 149.483 62.46C149.484 62.7658 149.605 63.0589 149.819 63.2758C150.03 63.489 150.315 63.6105 150.614 63.6139C150.914 63.6083 151.201 63.4873 151.416 63.2758C151.541 63.1394 151.634 62.976 151.687 62.7981L151.761 62.5558C151.845 62.2495 151.967 61.9547 152.122 61.678C152.393 61.1959 152.708 60.7403 153.064 60.3169C153.379 59.9541 153.724 59.6183 154.095 59.3129L154.183 59.2329C155.609 58.0617 157.424 57.4799 159.261 57.6058C162.554 57.7264 163.214 59.0707 163.214 61.2003V64.9559H144.51L144.646 64.6449C144.971 63.8847 145.142 63.0668 145.148 62.2392V58.3439C145.148 58.1949 145.119 58.0473 145.062 57.9097C145.005 57.7721 144.922 57.6471 144.817 57.5419C144.712 57.4366 144.587 57.3531 144.45 57.2962C144.313 57.2393 144.167 57.2101 144.018 57.2103C143.719 57.2106 143.432 57.3301 143.221 57.5425C143.009 57.755 142.89 58.0431 142.889 58.3439V62.2347C142.889 62.3474 142.863 64.9514 140.848 64.9514H138.543V58.3439C138.542 58.0433 138.423 57.7552 138.212 57.5426C138.001 57.3301 137.714 57.2106 137.415 57.2103C137.116 57.2109 136.83 57.3305 136.619 57.543C136.407 57.7554 136.288 58.0434 136.288 58.3439V66.2033C136.25 67.014 135.992 67.7987 135.541 68.472C135.09 69.1452 134.464 69.681 133.731 70.0209C133.451 70.128 133.225 70.3421 133.101 70.6165C132.978 70.8909 132.967 71.2033 133.071 71.4857C133.182 71.7655 133.397 71.9907 133.671 72.1136C133.944 72.2365 134.255 72.2473 134.536 72.1437C135.512 71.7233 136.374 71.0745 137.051 70.2513C137.727 69.4281 138.198 68.4544 138.424 67.4112L138.462 67.232H164.378C164.679 67.2305 164.967 67.1092 165.179 66.8945C165.39 66.6799 165.509 66.3895 165.508 66.0872V61.2003C165.508 57.4357 163.436 55.4536 159.344 55.3026" fill="#00B7AC"/>
</g>
<defs>
<clipPath id="clip0_1_6871">
<rect width="166" height="72" fill="white"/>
</clipPath>
</defs>
</svg>
